<?xml version="1.0" standalone="no"?><!DOCTYPE svg PUBLIC "-//W3C//DTD SVG 1.1//EN" "http://www.w3.org/Graphics/SVG/1.1/DTD/svg11.dtd"><svg t="1589163503603" class="icon" viewBox="0 0 1024 1024" version="1.1" xmlns="http://www.w3.org/2000/svg" p-id="13583" xmlns:xlink="http://www.w3.org/1999/xlink" width="45" height="45"><defs><style type="text/css"></style></defs><path d="M656.128 900.864l-5.12-2.304-6.912-4.096A89.088 89.088 0 0 1 588.8 812.8v-35.84a89.088 89.088 0 0 1 25.6-64.256s11.52-12.032 15.872-15.36a100.096 100.096 0 0 1 24.064-8.192 88.064 88.064 0 0 1 32.256-94.208 311.296 311.296 0 0 0-165.12-47.616h-183.296A313.6 313.6 0 0 0 25.6 860.672v18.432c0 90.368 137.984 90.368 312.576 90.368h185.344c49.92 0 98.048 0 140.8-2.304a89.344 89.344 0 0 1-8.192-66.304M421.632 523.52a248.32 248.32 0 1 0-247.552-248.064 248.064 248.064 0 0 0 247.552 248.064" fill="#EA6921" p-id="13584"></path><path d="M972.8 747.264a47.616 47.616 0 0 1-44.544-47.104 46.592 46.592 0 0 1 5.12-21.248A29.184 29.184 0 0 0 921.6 640l-15.872-9.472-15.104-8.96a29.696 29.696 0 0 0-38.912 8.96 47.104 47.104 0 0 1-78.848 0 29.952 29.952 0 0 0-38.912-8.96l-16.384 8.96-15.36 8.704A29.696 29.696 0 0 0 691.2 678.4a43.008 43.008 0 0 1 5.376 21.248 47.104 47.104 0 0 1-44.8 47.104 29.184 29.184 0 0 0-27.136 29.44v36.096a29.952 29.952 0 0 0 27.136 29.44 47.104 47.104 0 0 1 44.288 47.36 42.752 42.752 0 0 1-5.376 20.992 29.696 29.696 0 0 0 11.776 38.4l31.232 18.176a29.696 29.696 0 0 0 38.912-8.704 46.08 46.08 0 0 1 39.424-21.248 47.616 47.616 0 0 1 39.424 21.248 28.672 28.672 0 0 0 38.656 8.704l31.488-17.152a28.928 28.928 0 0 0 11.776-37.632v-1.536a48.896 48.896 0 0 1-3.584-18.176 47.104 47.104 0 0 1 40.96-47.36A28.928 28.928 0 0 0 998.4 813.312v-37.12a27.904 27.904 0 0 0-25.6-28.928zM879.872 819.2a71.168 71.168 0 0 1-12.8 22.272 76.8 76.8 0 0 1-43.008 25.6 112.128 112.128 0 0 1-13.056 0 107.776 107.776 0 0 1-12.8 0 74.752 74.752 0 0 1-43.008-25.6A67.328 67.328 0 0 1 742.4 819.2a68.864 68.864 0 0 1-4.608-25.6 85.504 85.504 0 0 1 4.096-25.6 67.328 67.328 0 0 1 13.056-22.272 70.656 70.656 0 0 1 43.52-25.6 66.048 66.048 0 0 1 25.6 0 73.728 73.728 0 0 1 56.576 47.104 71.168 71.168 0 0 1 4.096 25.6 69.12 69.12 0 0 1-4.864 26.368z" fill="#EA6921" p-id="13585"></path></svg>