<?xml version="1.0" standalone="no"?><!DOCTYPE svg PUBLIC "-//W3C//DTD SVG 1.1//EN" "http://www.w3.org/Graphics/SVG/1.1/DTD/svg11.dtd"><svg t="1589163400202" class="icon" viewBox="0 0 1024 1024" version="1.1" xmlns="http://www.w3.org/2000/svg" p-id="10691" xmlns:xlink="http://www.w3.org/1999/xlink" width="45" height="45"><defs><style type="text/css"></style></defs><path d="M930.304 409.6l-93.184-82.688v-179.2a59.904 59.904 0 0 0-119.808 0v72.192l-162.56-145.408a80.128 80.128 0 0 0-112.896 0L66.304 409.6a80.128 80.128 0 0 0 0 112.896l91.904 83.456v266.496A79.872 79.872 0 0 0 238.08 952.32h519.168a79.872 79.872 0 0 0 79.872-79.872V606.464l93.184-83.456a79.616 79.616 0 0 0 0-112.896z m-292.864 16.64a39.936 39.936 0 1 1-39.936 39.936 39.936 39.936 0 0 1 39.936-39.936z m-259.584 0a39.936 39.936 0 1 1-39.936 39.936 39.936 39.936 0 0 1 39.936-39.936z m355.584 221.184a239.36 239.36 0 0 1-471.296 0 22.784 22.784 0 0 1 0-2.816c0-7.936 8.96-14.08 19.968-14.08s19.712 5.888 20.224 13.312a11.008 11.008 0 0 0 0 1.28 199.68 199.68 0 0 0 391.424 0 17.664 17.664 0 0 1 9.216-12.544 28.672 28.672 0 0 1 10.752-2.304c11.264 0 21.504 4.608 19.968 16.384z m0 0" fill="#7D8CF4" p-id="10692"></path></svg>