<?xml version="1.0" standalone="no"?><!DOCTYPE svg PUBLIC "-//W3C//DTD SVG 1.1//EN" "http://www.w3.org/Graphics/SVG/1.1/DTD/svg11.dtd"><svg t="1589164337994" class="icon" viewBox="0 0 1024 1024" version="1.1" xmlns="http://www.w3.org/2000/svg" p-id="4172" xmlns:xlink="http://www.w3.org/1999/xlink" width="45" height="45"><defs><style type="text/css"></style></defs><path d="M521.472 822.272A236.8 236.8 0 0 1 742.4 505.856a214.528 214.528 0 0 1 36.608 2.56 244.224 244.224 0 0 1 55.296 14.336v-146.176a15.104 15.104 0 0 0-15.104-14.848H195.84a14.848 14.848 0 0 0-15.104 14.848v430.592a14.848 14.848 0 0 0 15.104 14.848h325.632z" fill="#30AFF0" p-id="4173"></path><path d="M573.184 636.672A227.584 227.584 0 0 0 558.08 665.6a201.216 201.216 0 0 0-13.312 102.4l5.376-5.888z" fill="#30AFF0" p-id="4174"></path><path d="M317.696 761.088a42.24 42.24 0 0 1-42.24-42.24V456.96a42.24 42.24 0 0 1 42.24-42.24 42.24 42.24 0 0 1 42.24 42.24v261.888a42.24 42.24 0 0 1-42.24 42.24z" fill="#FFFFFF" p-id="4175"></path><path d="M465.92 414.72m42.24 0l0 0q42.24 0 42.24 42.24l0 261.888q0 42.24-42.24 42.24l0 0q-42.24 0-42.24-42.24l0-261.888q0-42.24 42.24-42.24Z" fill="#FFFFFF" p-id="4176"></path><path d="M656.128 414.72m42.24 0l0 0q42.24 0 42.24 42.24l0 261.888q0 42.24-42.24 42.24l0 0q-42.24 0-42.24-42.24l0-261.888q0-42.24 42.24-42.24Z" fill="#FFFFFF" p-id="4177"></path><path d="M535.296 847.872H124.16a38.656 38.656 0 0 0 0 76.8h473.344a241.664 241.664 0 0 1-62.208-76.8z" fill="#30AFF0" p-id="4178"></path><path d="M494.08 728.32a238.08 238.08 0 1 1 70.912 169.216 238.08 238.08 0 0 1-70.912-169.216z m238.08-202.496a202.496 202.496 0 1 0 202.24 199.936 202.496 202.496 0 0 0-202.24-199.936z m0 0" fill="#30AFF0" p-id="4179"></path><path d="M529.152 728.576A202.752 202.752 0 1 1 588.8 873.472a203.264 203.264 0 0 1-60.416-144.896z m204.8-173.056a173.056 173.056 0 1 0 173.056 170.752 173.056 173.056 0 0 0-173.056-170.752z m0 0" fill="#30AFF0" p-id="4180"></path><path d="M830.72 708.352a91.136 91.136 0 0 0-25.6-67.072 89.856 89.856 0 0 0-67.328-25.6 93.44 93.44 0 0 0-93.44 93.44c0 38.144 51.2 102.4 79.616 137.216l2.048 2.816a14.848 14.848 0 0 0 11.776 5.632 15.872 15.872 0 0 0 12.288-5.632l1.792-2.816c27.904-34.56 79.872-98.816 79.872-137.216z m-94.464 27.648a35.072 35.072 0 1 1 25.6-10.24 34.048 34.048 0 0 1-25.6 10.24z m0 0" fill="#30AFF0" p-id="4181"></path><path d="M112.384 285.184L491.008 81.92a35.328 35.328 0 0 1 33.536 0l378.624 203.264c23.552 12.544 11.776 40.704-16.64 40.704H128c-27.392 0-39.168-28.16-15.616-40.704z" fill="#30AFF0" p-id="4182"></path></svg>