<?xml version="1.0" standalone="no"?><!DOCTYPE svg PUBLIC "-//W3C//DTD SVG 1.1//EN" "http://www.w3.org/Graphics/SVG/1.1/DTD/svg11.dtd"><svg t="1589163629078" class="icon" viewBox="0 0 1024 1024" version="1.1" xmlns="http://www.w3.org/2000/svg" p-id="17353" xmlns:xlink="http://www.w3.org/1999/xlink" width="45" height="45"><defs><style type="text/css"></style></defs><path d="M982.272 325.888L559.104 88.576a113.664 113.664 0 0 0-100.096 0L36.096 325.888a53.76 53.76 0 0 0-30.464 46.592 53.504 53.504 0 0 0 30.464 46.336l124.928 70.144a25.6 25.6 0 0 0-1.536 8.96V819.2c7.68 87.296 155.136 153.6 349.184 153.6s341.248-65.024 348.928-153.6a18.176 18.176 0 0 0 0-3.584 7.68 7.68 0 0 1 0-2.56V488.448l86.528-48.64v384a31.488 31.488 0 1 0 61.44 0V394.752a51.2 51.2 0 0 0 5.632-22.272 54.016 54.016 0 0 0-28.928-46.592z" fill="#DD583A" p-id="17354"></path><path d="M353.792 467.968v-31.488c23.04 0 44.032 1.28 62.976 1.28h212.992c17.92 0 39.424 0 64.512-1.28v31.488c-25.6 0-52.992-1.536-83.968-1.536a316.928 316.928 0 0 1-26.88 86.272 299.776 299.776 0 0 1-42.24 65.28 217.6 217.6 0 0 0 75.008 41.216 356.864 356.864 0 0 0 81.152 18.688 88.064 88.064 0 0 0-24.064 31.488 628.48 628.48 0 0 1-66.048-20.992 343.552 343.552 0 0 1-87.04-51.2 393.472 393.472 0 0 1-146.944 75.008 62.464 62.464 0 0 0-20.992-29.952 351.744 351.744 0 0 0 69.888-18.944 220.16 220.16 0 0 0 76.8-44.288 312.32 312.32 0 0 1-75.008-153.6h-15.104a408.064 408.064 0 0 0-55.04 2.56z m165.12 131.84a274.176 274.176 0 0 0 59.904-133.376h-124.416a230.4 230.4 0 0 0 64.512 133.376z m23.808-179.2a72.704 72.704 0 0 0-26.88 15.104q-20.992-39.168-37.632-64.512a80.128 80.128 0 0 0 25.6-15.104c11.008 17.92 24.064 39.168 38.912 65.28z" fill="#FFFFFF" p-id="17355"></path><path d="M370.944 716.8v-3.328a61.696 61.696 0 0 0-19.968-28.16l-5.12-4.864h6.912a337.408 337.408 0 0 0 68.864-18.688 222.976 222.976 0 0 0 72.448-41.216 318.72 318.72 0 0 1-72.96-151.296h-12.544a399.616 399.616 0 0 0-53.504 3.072h-3.584v-38.4h3.328c22.784 0 43.776 1.536 62.72 1.536H512c-13.312-25.6-25.6-45.056-35.584-61.184l-2.304-3.584h4.096a78.336 78.336 0 0 0 25.6-14.592l2.816-2.048 2.048 2.816c11.008 17.152 24.064 38.912 38.912 64.768l2.048 3.584h-4.096a62.464 62.464 0 0 0-20.224 10.24h104.448c17.92 0 39.68 0 64.512-1.536h3.328v38.144h-3.328c-25.6 0-51.2-1.536-81.152-1.536a313.6 313.6 0 0 1-26.88 84.48 305.152 305.152 0 0 1-40.448 63.488 212.224 212.224 0 0 0 71.424 38.656 349.44 349.44 0 0 0 80.384 18.432h8.192l-6.656 5.12a87.296 87.296 0 0 0-23.04 30.464v2.048h-2.56a607.232 607.232 0 0 1-67.328-22.016 338.176 338.176 0 0 1-85.76-51.2 404.224 404.224 0 0 1-146.176 76.8zM358.4 684.544a65.28 65.28 0 0 1 16.384 23.808 388.864 388.864 0 0 0 142.592-73.472l2.048-1.536 2.048 1.536a332.8 332.8 0 0 0 86.272 51.2 593.92 593.92 0 0 0 62.976 20.48 100.864 100.864 0 0 1 18.176-25.6 391.936 391.936 0 0 1-74.496-17.92 221.44 221.44 0 0 1-76.8-41.984v-2.816l2.048-2.56a286.464 286.464 0 0 0 41.472-64.512 310.016 310.016 0 0 0 25.6-85.248v-2.816h2.816c28.928 0 56.064 0 80.896 1.536v-25.6c-23.552 0-44.288 1.28-61.44 1.28h-212.224c-17.92 0-38.144 0-59.648-1.28v24.32a476.672 476.672 0 0 1 51.2-2.56h17.664v2.56a313.6 313.6 0 0 0 74.24 153.6l2.304 2.304-2.56 2.304a225.792 225.792 0 0 1-76.8 44.8 370.432 370.432 0 0 1-64.768 18.176z m123.904-311.04c9.984 15.616 21.248 35.072 33.792 58.112a72.704 72.704 0 0 1 21.248-12.032c-13.312-22.784-25.6-42.24-35.072-58.112a87.552 87.552 0 0 1-19.2 12.032z m35.84 230.4l-2.304-2.56a236.032 236.032 0 0 1-65.536-135.168v-3.84h132.096v3.84a277.248 277.248 0 0 1-60.672 134.912z m-60.928-135.168a230.4 230.4 0 0 0 60.672 125.696 274.944 274.944 0 0 0 56.32-125.696z" fill="#FFFFFF" p-id="17356"></path></svg>