<?xml version="1.0" standalone="no"?><!DOCTYPE svg PUBLIC "-//W3C//DTD SVG 1.1//EN" "http://www.w3.org/Graphics/SVG/1.1/DTD/svg11.dtd"><svg t="1589163579381" class="icon" viewBox="0 0 1024 1024" version="1.1" xmlns="http://www.w3.org/2000/svg" p-id="16122" xmlns:xlink="http://www.w3.org/1999/xlink" width="45" height="45"><defs><style type="text/css"></style></defs><path d="M258.56 939.008v-51.2h531.968a51.2 51.2 0 0 0 48.384-51.2V204.8a51.2 51.2 0 0 0-48.384-51.2H258.56a51.2 51.2 0 0 0-48.384 51.2v480H161.792V204.8a102.4 102.4 0 0 1 25.6-72.704 100.352 100.352 0 0 1 71.168-31.744h531.968A100.096 100.096 0 0 1 887.04 204.8v629.504a100.096 100.096 0 0 1-96.512 104.704z" fill="#58DBAF" p-id="16123"></path><path d="M184.32 124.672m112.896 0l455.936 0q112.896 0 112.896 112.896l0 577.536q0 112.896-112.896 112.896l-455.936 0q-112.896 0-112.896-112.896l0-577.536q0-112.896 112.896-112.896Z" fill="#58DBAF" p-id="16124"></path><path d="M161.792 677.12H693.76a51.2 51.2 0 0 1 35.328 15.872A51.2 51.2 0 0 1 742.4 729.6v78.592c-2.048 51.2 14.08 76.8 48.384 78.592s34.304 19.968 0 51.2H210.176a101.12 101.12 0 0 1-96.768-104.96V729.6a51.2 51.2 0 0 1 48.384-52.48z" fill="#58DBAF" p-id="16125"></path><path d="M782.336 725.504H670.72a133.888 133.888 0 0 1-7.68-76.8 88.32 88.32 0 0 0 51.2-80.64 102.4 102.4 0 0 0-2.304-19.712 7.936 7.936 0 0 0-8.448-5.632 7.168 7.168 0 0 0-6.144 8.448 76.8 76.8 0 0 1 2.048 17.152 73.472 73.472 0 0 1-45.824 68.352 8.192 8.192 0 0 0-4.608 5.12 145.664 145.664 0 0 0 9.728 93.184 7.168 7.168 0 0 0 6.912 4.608h116.48a14.848 14.848 0 0 1 14.848 15.104v36.096a14.848 14.848 0 0 1-14.848 15.104h-206.848a7.424 7.424 0 0 0-7.68 7.424 7.68 7.68 0 0 0 7.68 7.424h207.104a29.952 29.952 0 0 0 29.952-29.952v-35.328a29.952 29.952 0 0 0-29.952-29.952zM469.76 821.76h45.312a7.936 7.936 0 0 0 7.424-7.68 7.68 7.68 0 0 0-7.424-7.424h-45.312a15.104 15.104 0 0 1-15.104-15.104v-36.096a15.36 15.36 0 0 1 15.104-15.104h116.48a7.936 7.936 0 0 0 6.912-4.352 147.456 147.456 0 0 0 9.472-93.184 8.448 8.448 0 0 0-4.352-5.376 73.728 73.728 0 1 1 71.424-128 7.936 7.936 0 0 0 5.888 1.536 7.168 7.168 0 0 0 6.144-8.448 7.424 7.424 0 0 0-2.816-4.864 87.808 87.808 0 0 0-52.736-17.664A88.832 88.832 0 0 0 588.8 649.984a128 128 0 0 1-7.68 75.52h-111.36a29.952 29.952 0 0 0-29.952 29.952v36.352a29.952 29.952 0 0 0 29.952 29.952z" fill="#FFFFFF" p-id="16126"></path><path d="M626.176 568.576m-88.064 0a88.064 88.064 0 1 0 176.128 0 88.064 88.064 0 1 0-176.128 0Z" fill="#FFFFFF" p-id="16127"></path><path d="M595.456 625.152h62.464v186.624h-62.464z" fill="#FFFFFF" p-id="16128"></path><path d="M449.792 727.552m20.48 0l310.528 0q20.48 0 20.48 20.48l0 52.736q0 20.48-20.48 20.48l-310.528 0q-20.48 0-20.48-20.48l0-52.736q0-20.48 20.48-20.48Z" fill="#FFFFFF" p-id="16129"></path><path d="M294.656 241.92m11.52 0l234.496 0q11.52 0 11.52 11.52l0 29.696q0 11.52-11.52 11.52l-234.496 0q-11.52 0-11.52-11.52l0-29.696q0-11.52 11.52-11.52Z" fill="#FFFFFF" p-id="16130"></path><path d="M294.656 393.728m11.52 0l151.296 0q11.52 0 11.52 11.52l0 29.696q0 11.52-11.52 11.52l-151.296 0q-11.52 0-11.52-11.52l0-29.696q0-11.52 11.52-11.52Z" fill="#FFFFFF" p-id="16131"></path><path d="M294.656 545.28m11.52 0l84.736 0q11.52 0 11.52 11.52l0 29.696q0 11.52-11.52 11.52l-84.736 0q-11.52 0-11.52-11.52l0-29.696q0-11.52 11.52-11.52Z" fill="#FFFFFF" p-id="16132"></path></svg>