<?xml version="1.0" standalone="no"?><!DOCTYPE svg PUBLIC "-//W3C//DTD SVG 1.1//EN" "http://www.w3.org/Graphics/SVG/1.1/DTD/svg11.dtd"><svg t="1589163685241" class="icon" viewBox="0 0 1024 1024" version="1.1" xmlns="http://www.w3.org/2000/svg" p-id="18872" xmlns:xlink="http://www.w3.org/1999/xlink" width="45" height="45"><defs><style type="text/css"></style></defs><path d="M735.744 193.536m-81.92 0a81.92 81.92 0 1 0 163.84 0 81.92 81.92 0 1 0-163.84 0Z" fill="#03C8AA" p-id="18873"></path><path d="M576.256 274.944a284.416 284.416 0 0 0-54.016 14.08 766.208 766.208 0 0 1-230.4 34.048A748.8 748.8 0 0 1 25.6 275.968a680.448 680.448 0 0 0 361.472 94.208c139.776 3.584 189.184-38.656 209.92 3.328 52.736 136.96-53.248 340.48-298.752 435.2a849.664 849.664 0 0 1-217.344 54.272 571.136 571.136 0 0 0 289.536-36.352c245.76-93.696 390.144-315.392 337.408-452.352a161.536 161.536 0 0 0-38.144-56.576 125.44 125.44 0 0 0-93.44-42.752zM750.848 575.488a42.496 42.496 0 0 0-35.072 19.456 460.8 460.8 0 0 1-82.176 102.4A270.592 270.592 0 0 1 998.4 814.848c-14.592-126.208-102.4-239.36-247.552-239.36z" fill="#03C8AA" p-id="18874"></path></svg>