<?xml version="1.0" standalone="no"?><!DOCTYPE svg PUBLIC "-//W3C//DTD SVG 1.1//EN" "http://www.w3.org/Graphics/SVG/1.1/DTD/svg11.dtd"><svg t="1623739263228" class="icon" viewBox="0 0 1024 1024" version="1.1" xmlns="http://www.w3.org/2000/svg" p-id="30246" xmlns:xlink="http://www.w3.org/1999/xlink" width="128" height="128"><defs><style type="text/css"></style></defs><path d="M708.821333 578.048c109.610667 0 198.4 86.272 198.4 192.725333 0 41.6-13.568 80.170667-36.693333 111.658667l79.146667 80.469333a35.413333 35.413333 0 0 1-1.194667 51.072 38.058667 38.058667 0 0 1-48.853333 2.176l-3.712-3.328-79.104-80.384a201.728 201.728 0 0 1-107.946667 31.018667c-109.610667 0-198.4-86.272-198.4-192.682667 0-106.453333 88.789333-192.725333 198.4-192.725333zM758.442667 0c54.784 0 99.2 43.136 99.2 96.341333l0.042666 481.706667a251.733333 251.733333 0 0 0-148.864-48.170667c-136.96 0-247.978667 107.861333-247.978666 240.896 0 78.805333 38.997333 148.821333 99.285333 192.768l-396.928-0.085333C108.416 963.413333 64 920.32 64 867.114667V96.341333C64 43.136 108.416 0 163.2 0h595.242667z m-49.621334 650.325333c-68.48 0-123.989333 53.930667-123.989333 120.448 0 66.474667 55.509333 120.405333 123.989333 120.405334 68.522667 0 124.032-53.930667 124.032-120.405334 0-66.56-55.509333-120.448-124.032-120.448zM380.586667 592.512H215.125333a34.218667 34.218667 0 0 0-34.730666 33.706667c0 18.645333 15.530667 33.706667 34.730666 33.706666h165.418667c19.2 0 34.730667-15.061333 34.730667-33.706666a34.218667 34.218667 0 0 0-34.730667-33.706667z m137.898666-138.496H223.104a34.218667 34.218667 0 0 0-34.730667 33.706667c0 18.645333 15.573333 33.706667 34.730667 33.706666h295.338667c19.157333 0 34.688-15.061333 34.688-33.706666a34.218667 34.218667 0 0 0-34.688-33.706667zM422.058667 106.88c-65.109333 2.005333-99.712 49.194667-103.850667 141.525333 3.114667 91.306667 37.717333 137.472 103.850667 138.496 67.2-1.024 102.314667-47.189333 105.386666-138.496-3.072-92.330667-38.186667-139.52-105.386666-141.525333z m226.346666 0c-65.109333 2.005333-99.754667 49.194667-103.893333 141.525333 3.114667 91.306667 37.717333 137.472 103.893333 138.496 67.157333-1.024 102.272-47.189333 105.386667-138.496-3.114667-92.330667-38.229333-139.52-105.386667-141.525333z m-392.192 4.522667H200.405333c-17.578667 0.981333-26.88 9.514667-27.904 25.6 1.024 17.066667 10.325333 26.069333 27.904 27.093333h23.253334v194.176c1.024 18.090667 10.837333 27.093333 29.44 27.093333 18.602667 0 28.416-9.002667 29.44-27.093333V138.496c-1.024-17.066667-9.813333-26.112-26.325334-27.093333z m165.845334 46.677333c29.994667 0 44.458667 30.08 43.434666 90.325333 0 59.178667-14.506667 88.789333-43.434666 88.789334-27.904 0-41.813333-29.610667-41.813334-88.789334-1.066667-60.245333 12.885333-90.325333 41.813334-90.325333z m226.346666 0c29.952 0 44.416 30.08 43.392 90.325333 0 59.178667-14.506667 88.789333-43.392 88.789334-27.904 0-41.856-29.610667-41.856-88.789334-1.066667-60.245333 12.885333-90.325333 41.813334-90.325333z" fill="#1296db" p-id="30247"></path></svg>