<?xml version="1.0" standalone="no"?><!DOCTYPE svg PUBLIC "-//W3C//DTD SVG 1.1//EN" "http://www.w3.org/Graphics/SVG/1.1/DTD/svg11.dtd"><svg t="1623738254184" class="icon" viewBox="0 0 1024 1024" version="1.1" xmlns="http://www.w3.org/2000/svg" p-id="8699" xmlns:xlink="http://www.w3.org/1999/xlink" width="128" height="128"><defs><style type="text/css"></style></defs><path d="M758.499556 56.888889A180.167111 180.167111 0 0 1 938.666667 237.056v230.855111l-75.889778 54.385778V237.056a104.277333 104.277333 0 0 0-104.277333-104.334222H237.056c-57.628444 0-104.334222 46.705778-104.334222 104.334222v606.776889a104.277333 104.277333 0 0 0 104.334222 104.334222h521.443556c57.628444 0 104.334222-46.705778 104.334222-104.334222l-0.056889-66.844445 75.889778-54.840888v121.742222A180.167111 180.167111 0 0 1 758.499556 1024H237.056A180.167111 180.167111 0 0 1 56.888889 843.832889V237.056A180.167111 180.167111 0 0 1 237.056 56.888889h521.443556z" fill="#d4237a" p-id="8700"></path><path d="M472.177778 785.521778a31.971556 31.971556 0 1 1 0 64H316.359111a31.971556 31.971556 0 1 1 0-64H472.177778z m67.982222-128.170667a31.971556 31.971556 0 1 1 0 64H316.472889a31.971556 31.971556 0 1 1 0-64h223.687111z m81.009778-127.829333a31.971556 31.971556 0 1 1 0 64H316.416a31.971556 31.971556 0 1 1 0-64h304.753778z" fill="#d4237a" p-id="8701"></path><path d="M311.751111 455.111111V252.586667h-29.013333l-28.785778 21.048889v30.776888l28.728889-21.105777V455.111111h29.013333z m120.547556 1.706667c15.701333-0.227556 29.127111-5.290667 40.106666-15.36 11.207111-10.069333 17.009778-24.405333 17.351111-43.008v-89.315556c-0.341333-18.716444-6.144-33.109333-17.351111-43.235555a57.571556 57.571556 0 0 0-40.106666-14.961778c-15.303111 0-28.444444 5.006222-39.480889 15.018667-11.719111 10.069333-17.692444 24.462222-17.92 43.235555v89.258667c0.227556 18.602667 6.200889 32.995556 17.92 43.064889 11.036444 10.012444 24.177778 15.075556 39.480889 15.246222z m0-29.070222c-18.545778-0.170667-27.989333-10.524444-28.330667-30.947556v-85.902222c0.341333-20.252444 9.784889-30.549333 28.330667-30.947556 18.432 0.398222 27.875556 10.695111 28.444444 31.004445v85.845333c-0.568889 20.48-10.012444 30.72-28.444444 30.947556z m177.720889 26.794666c15.758222-0.170667 29.127111-5.290667 40.163555-15.246222 11.207111-10.126222 17.009778-24.462222 17.351111-43.064889v-89.315555c-0.341333-18.716444-6.144-33.109333-17.351111-43.235556a57.571556 57.571556 0 0 0-40.163555-14.961778c-15.246222 0-28.444444 5.006222-39.424 15.018667-11.776 10.069333-17.749333 24.462222-17.92 43.178667v89.315555c0.170667 18.602667 6.144 32.995556 17.92 43.064889 11.036444 9.955556 24.177778 15.075556 39.424 15.246222z m0.227555-30.208c-18.488889-0.227556-27.932444-10.524444-28.330667-31.004444V307.484444c0.398222-20.252444 9.841778-30.549333 28.330667-30.947555 18.432 0.398222 27.932444 10.695111 28.444445 30.947555v85.902223c-0.512 20.423111-10.012444 30.72-28.444445 30.947555z" fill="#d4237a" p-id="8702"></path><path d="M698.197333 778.012444l99.726223-14.108444-62.008889-79.303111zM802.019556 760.32l-61.781334-79.075556 202.581334-157.184 61.44 79.189334zM1010.346667 598.129778l-61.781334-79.075556 14.392889-10.922666L1024 586.752z" fill="#d4237a" p-id="8703"></path></svg>