<?xml version="1.0" standalone="no"?><!DOCTYPE svg PUBLIC "-//W3C//DTD SVG 1.1//EN" "http://www.w3.org/Graphics/SVG/1.1/DTD/svg11.dtd"><svg t="1623739502420" class="icon" viewBox="0 0 1024 1024" version="1.1" xmlns="http://www.w3.org/2000/svg" p-id="35860" xmlns:xlink="http://www.w3.org/1999/xlink" width="128" height="128"><defs><style type="text/css"></style></defs><path d="M454.97837 740.295111h117.039408v243.825778h-117.039408zM729.656889 626.176h123.297185v354.834963h-123.297185zM144.402963 849.711407h134.219852v136.002371H144.402963z" fill="#FCDCCB" p-id="35861"></path><path d="M895.070815 967.717926V348.709926a37.508741 37.508741 0 0 0-37.451852-37.527704h-127.981037a37.489778 37.489778 0 0 0-37.451852 37.527704v619.026963h-78.051555V558.174815a37.489778 37.489778 0 0 0-37.451852-37.527704h-127.981037a37.489778 37.489778 0 0 0-37.451852 37.527704v409.562074h-96.768V741.850074a37.489778 37.489778 0 0 0-37.451852-37.527704H149.086815a37.489778 37.489778 0 0 0-37.451852 37.527704v225.867852H0.815407V1024h1023.981037v-56.282074h-129.725629zM749.093926 368.071111h89.088V967.111111h-89.088V368.071111zM468.15763 577.536h89.088v386.446222h-89.088V577.536zM168.523852 761.230222h89.106963v198.84563H168.523852V761.230222zM789.750519 0a59.335111 59.335111 0 0 0-59.297186 59.410963c0 9.462519 2.408296 18.280296 6.33363 26.225778l-191.867259 181.513481a58.576593 58.576593 0 0 0-19.702519-3.621926c-11.889778 0-22.907259 3.584-32.180148 9.614223l-45.719704-45.454223a59.354074 59.354074 0 0 0-57.893926-72.040296 59.335111 59.335111 0 0 0-59.297185 59.410963c0 6.731852 1.365333 13.103407 3.432297 19.13363L132.096 424.77037a58.898963 58.898963 0 0 0-23.589926-4.93037 59.354074 59.354074 0 0 0-59.297185 59.392c0 32.805926 26.548148 59.429926 59.297185 59.429926a59.354074 59.354074 0 0 0 59.297185-59.429926c0-6.428444-1.270519-12.496593-3.166815-18.299259l201.974519-191.051852c7.016296 2.939259 14.715259 4.589037 22.812444 4.589037 10.334815 0 19.930074-2.88237 28.387556-7.547259l48.82963 48.564148c-0.32237 2.465185-0.758519 4.892444-0.758519 7.452444a59.335111 59.335111 0 1 0 114.270815-22.129778l194.654815-184.111407c4.79763 1.251556 9.746963 2.142815 14.942815 2.142815a59.354074 59.354074 0 0 0 59.316148-59.392A59.354074 59.354074 0 0 0 789.750519 0z" fill="#F67250" p-id="35862"></path></svg>