<?xml version="1.0" standalone="no"?><!DOCTYPE svg PUBLIC "-//W3C//DTD SVG 1.1//EN" "http://www.w3.org/Graphics/SVG/1.1/DTD/svg11.dtd"><svg t="1623738416615" class="icon" viewBox="0 0 1024 1024" version="1.1" xmlns="http://www.w3.org/2000/svg" p-id="12117" xmlns:xlink="http://www.w3.org/1999/xlink" width="128" height="128"><defs><style type="text/css"></style></defs><path d="M484.324324 235.243243v92.021622c2.075676-1.383784 4.151351-2.767568 6.227027-3.45946L521.686486 235.243243H484.324324zM498.854054 320.345946c4.151351-1.383784 8.302703-2.075676 13.145946-2.075676 10.378378 0 20.064865 3.459459 27.675676 8.994595V235.243243h-11.070271l-29.751351 85.102703z" fill="#EB4545" p-id="12118"></path><path d="M857.945946 235.243243H546.594595v97.556757c8.302703 8.994595 13.837838 20.756757 13.837837 33.902703 0 26.983784-21.448649 48.432432-48.432432 48.432432s-48.432432-21.448649-48.432432-48.432432c0-13.145946 5.535135-24.908108 13.837837-33.902703V235.243243H166.054054C78.875676 235.243243 96.864865 38.054054 96.864865 0v982.486486c0 15.221622 12.454054 27.675676 27.675676 27.675676h774.918918c15.221622 0 27.675676-12.454054 27.675676-27.675676V0c0 38.054054 13.837838 235.243243-69.189189 235.243243z m-207.567568 505.081081H380.540541v-41.513513h269.837837v41.513513z m0-89.945946H380.540541v-41.513513h269.837837v41.513513z m0-89.945946H380.540541v-41.513513h269.837837v41.513513z" fill="#EB4545" p-id="12119"></path><path d="M521.686486 235.243243l8.302703-24.216216c-5.535135 2.075676-11.762162 3.459459-17.989189 3.459459-10.378378 0-20.064865-3.459459-27.675676-8.994594V235.243243h37.362162zM843.416216 186.810811H541.059459c-2.075676 4.843243-5.535135 8.994595-8.994594 13.145946V235.243243h311.351351c38.054054 0 69.189189-31.135135 69.189189-69.189189v-48.432432c0 38.054054-31.135135 69.189189-69.189189 69.189189z" fill="#59D5B4" p-id="12120"></path><path d="M172.972973 231.783784h311.351351v-35.286487c-3.459459-4.151351-6.918919-8.302703-8.994594-13.145946H172.972973c-38.054054 0-69.189189-44.972973-69.189189-83.027027v48.432433c0 38.054054 29.059459 83.027027 69.189189 83.027027zM528.605405 235.243243H539.675676v-29.751351l-0.691892 0.691892-10.378379 29.059459z" fill="#59D5B4" p-id="12121"></path><path d="M96.864865 0v96.864865c0-15.221622 12.454054-27.675676 27.675676-27.675676h774.918918c15.221622 0 27.675676 12.454054 27.675676 27.675676V0H96.864865z" fill="#29BE96" p-id="12122"></path><path d="M899.459459 48.432432H124.540541c-15.221622 0-27.675676 14.52973-27.675676 32.518919v8.302703C96.864865 134.227027 128 186.810811 166.054054 186.810811h302.356757c-2.767568-7.610811-4.843243-15.913514-4.843243-24.216216 0-31.135135 21.448649-56.735135 48.432432-56.735136s48.432432 25.6 48.432432 56.735136c0 8.994595-1.383784 17.297297-4.843243 24.216216H857.945946c38.054054 0 69.189189-36.67027 69.189189-81.643243v-24.216217c0-17.989189-12.454054-32.518919-27.675676-32.518919z" fill="#29BE96" p-id="12123"></path><path d="M521.686486 235.243243l-31.135135 87.870271c2.767568-1.383784 5.535135-2.075676 8.302703-3.45946L528.605405 235.243243h-6.918919zM484.324324 327.264865V235.243243h-6.918919v97.556757c2.075676-2.075676 4.151351-4.151351 6.918919-5.535135zM484.324324 205.491892c-2.767568-2.075676-4.843243-3.459459-6.918919-5.535135V235.243243h6.918919v-29.751351zM539.675676 327.264865c2.767568 2.075676 4.843243 3.459459 6.918919 5.535135V235.243243h-6.918919v92.021622zM539.675676 205.491892V235.243243h6.918919v-35.286486c-2.075676 2.075676-4.151351 4.151351-6.918919 5.535135z" fill="#F1F0EC" p-id="12124"></path><path d="M539.675676 205.491892v-1.383784l-0.691892 2.075676s0.691892 0 0.691892-0.691892z" fill="#F1F0EC" p-id="12125"></path><path d="M380.540541 518.918919h269.837837v41.513513H380.540541zM380.540541 608.864865h269.837837v41.513513H380.540541zM380.540541 698.810811h269.837837v41.513513H380.540541z" fill="#F1F0EC" p-id="12126"></path><path d="M512 166.054054m-48.432432 0a48.432432 48.432432 0 1 0 96.864864 0 48.432432 48.432432 0 1 0-96.864864 0Z" fill="#FCFCFC" p-id="12127"></path></svg>