<?xml version="1.0" standalone="no"?><!DOCTYPE svg PUBLIC "-//W3C//DTD SVG 1.1//EN" "http://www.w3.org/Graphics/SVG/1.1/DTD/svg11.dtd"><svg t="1623739801067" class="icon" viewBox="0 0 1024 1024" version="1.1" xmlns="http://www.w3.org/2000/svg" p-id="41946" xmlns:xlink="http://www.w3.org/1999/xlink" width="128" height="128"><defs><style type="text/css"></style></defs><path d="M747.600061 631.879609c-15.989895 25.75778-33.407061 52.586014-52.273798 80.4624 158.806194 23.750681 240.093734 74.64181 240.093734 99.931267 0 33.696975-144.04286 112.709802-423.408846 112.709802-279.388288 0-423.453449-79.012827-423.453449-112.709802 0-25.311758 81.287541-76.180587 240.138337-99.931267-18.889039-27.876386-36.306205-54.704619-52.296099-80.4624C119.645447 661.47318 0 722.221399 0 812.295577c0 132.134068 257.600105 201.245203 512.011151 201.245203s511.988849-69.133436 511.988849-201.245203C1024 722.221399 904.376854 661.47318 747.600061 631.879609z" fill="#1296db" p-id="41947"></path><path d="M512.033452 803.888059c23.014744 0 44.66912-10.949844 58.272797-29.548969 87.085829-118.864908 241.141886-345.845591 241.141886-464.465187 0-165.385021-134.074264-299.436984-299.436984-299.436984-165.407322 0-299.436984 134.051963-299.436984 299.436984 0 118.597295 154.011455 345.600279 241.119585 464.465187C467.364331 792.938215 489.018708 803.888059 512.033452 803.888059zM387.459459 303.964109c0-68.776619 55.752771-124.52939 124.551691-124.52939 68.776619 0 124.52939 55.752771 124.52939 124.52939s-55.752771 124.52939-124.52939 124.52939C443.212231 428.5158 387.459459 372.763029 387.459459 303.964109z" fill="#1296db" p-id="41948"></path></svg>