<?xml version="1.0" standalone="no"?><!DOCTYPE svg PUBLIC "-//W3C//DTD SVG 1.1//EN" "http://www.w3.org/Graphics/SVG/1.1/DTD/svg11.dtd"><svg t="1623738736077" class="icon" viewBox="0 0 1024 1024" version="1.1" xmlns="http://www.w3.org/2000/svg" p-id="16098" xmlns:xlink="http://www.w3.org/1999/xlink" width="128" height="128"><defs><style type="text/css"></style></defs><path d="M512.852402 729.08827c-21.708418 0-39.316447 17.60803-39.316447 39.315424 0 21.708418 17.60803 39.316447 39.316447 39.316447 21.717627 0 39.331797-17.60803 39.331797-39.316447C552.183176 746.6963 534.57003 729.08827 512.852402 729.08827z" fill="#d4237a" p-id="16099"></path><path d="M281.8881 703.84433l460.223776 0L742.111877 253.821893 281.8881 253.821893 281.8881 703.84433zM354.768991 411.30974c8.594749-21.852704 20.59813-40.687678 36.020378-56.495712 15.416108-15.801894 34.048467-27.998681 55.905264-36.598546 21.862937-8.579399 46.245254-12.871145 73.187883-12.871145 25.367761 0 48.211025 4.490268 68.503187 13.465686 20.298302 8.980535 37.46631 20.786419 51.517327 35.420721 14.049994 14.628162 24.894993 31.126928 32.500205 49.463552 7.614421 18.342764 11.406794 36.894282 11.406794 55.627948 0 37.080523-20.875446 55.610552-62.630433 55.610552L451.373189 514.932796c5.862521 26.926256 16.396435 48.399313 31.626301 64.404846 15.21861 16.000416 33.758871 24.006763 55.626925 24.006763 12.485359 0 22.917966-1.366114 31.31931-4.110621 8.392134-2.728134 15.813151-5.852288 22.23849-9.366322 6.446829-3.504824 12.410658-6.634094 17.86488-9.361205 5.471618-2.733251 11.32186-4.099365 17.565051-4.099365 7.030114 0 13.365402 0.974188 19.023262 2.930749 5.675256 1.950422 11.80486 6.049786 18.455327 12.281721-7.031137 8.590656-15.228843 16.787338-24.596188 24.595164-9.366322 7.801686-19.901259 14.731516-31.625278 20.775162-11.703553 6.061043-24.87555 10.847046-39.507806 14.361079-14.635325 3.504824-30.737048 5.257747-48.303122 5.257747-26.541493 0-50.841945-4.099365-72.90852-12.281721-22.045085-8.199753-40.98239-19.821441-56.779168-34.853809-15.812127-15.025205-28.008914-33.168424-36.603663-54.43682-8.579399-21.274536-12.877285-45.177945-12.877285-71.708182C341.891706 457.163067 346.189592 433.16756 354.768991 411.30974z" fill="#d4237a" p-id="16100"></path><path d="M878.943265 0 145.055689 0c-80.101339 0-145.035234 64.933895-145.035234 145.035234l0 733.929532c0 80.099293 64.933895 145.033187 145.035234 145.033187l733.887576 0c80.100316 0 145.035234-64.933895 145.035234-145.033187L1023.978499 145.036257C1023.978499 64.933895 959.043581 0 878.943265 0zM800.064776 737.340211c0 52.803623-42.803875 95.602382-95.617731 95.602382L319.551908 832.942593c-52.817949 0-95.616708-42.798758-95.616708-95.602382L223.9352 286.659789c0-52.80874 42.798758-95.602382 95.616708-95.602382l384.894114 0c52.813856 0 95.617731 42.793642 95.617731 95.602382L800.063753 737.340211z" fill="#d4237a" p-id="16101"></path><path d="M569.64692 463.60171c5.658883-2.737344 9.859555-6.03853 12.58769-9.950629 2.732228-3.90596 4.099365-8.192589 4.099365-12.875239 0-4.684696-0.390903-9.181103-1.168616-13.467733-1.178849-4.291746-3.027963-10.341532-5.556553-18.148335-2.539846-7.812943-6.446829-15.609513-11.713786-23.422456-5.26798-7.79657-12.196787-14.531971-20.786419-20.207227-8.595772-5.647627-19.317974-8.478092-32.200376-8.478092-23.427572 0-41.678238 9.163707-54.747905 27.516704-13.074783 18.34788-20.002566 46.050826-20.791535 83.132372l106.571201 0C556.078903 467.701075 563.98906 466.334961 569.64692 463.60171z" fill="#d4237a" p-id="16102"></path></svg>