<?xml version="1.0" standalone="no"?><!DOCTYPE svg PUBLIC "-//W3C//DTD SVG 1.1//EN" "http://www.w3.org/Graphics/SVG/1.1/DTD/svg11.dtd"><svg t="1623738129781" class="icon" viewBox="0 0 1024 1024" version="1.1" xmlns="http://www.w3.org/2000/svg" p-id="6977" xmlns:xlink="http://www.w3.org/1999/xlink" width="128" height="128"><defs><style type="text/css"></style></defs><path d="M0 0h1024v1024H0V0z m830.267733 157.5936c-4.130133-2.688-18.986667-10.112-36.6336 6.493867-2.269867 2.065067-4.437333 4.130133-6.596266 6.1952-46.020267 43.639467-76.347733 72.533333-245.0432 15.786666-45.397333-15.274667-91.52-22.075733-137.130667-20.224a371.1232 371.1232 0 0 0-107.605333 20.846934c-59.639467 21.0432-94.9248 50.449067-96.366934 51.6864-1.339733 1.134933-2.474667 2.372267-3.413333 3.6096a20.667733 20.667733 0 0 0-7.936 26.001066l261.137067 590.062934a20.727467 20.727467 0 0 0 37.8624-16.810667L367.530667 567.714133l2.056533-3.925333c27.451733-52.4032 58.504533-111.829333 218.427733-97.595733 29.201067 2.577067 57.685333-2.167467 84.821334-14.2336 1.646933-0.725333 3.396267-1.553067 5.051733-2.3808 24.661333-11.758933 48.0768-29.610667 69.742933-53.034667 33.9456-36.625067 63.761067-87.901867 81.92-140.834133 6.912-20.113067 11.562667-38.792533 13.312-53.956267 1.757867-14.344533 2.269867-34.56-12.586666-44.16z" fill="#F46E52" p-id="6978"></path></svg>