<?xml version="1.0" standalone="no"?><!DOCTYPE svg PUBLIC "-//W3C//DTD SVG 1.1//EN" "http://www.w3.org/Graphics/SVG/1.1/DTD/svg11.dtd"><svg t="1623738366890" class="icon" viewBox="0 0 1312 1024" version="1.1" xmlns="http://www.w3.org/2000/svg" p-id="11215" xmlns:xlink="http://www.w3.org/1999/xlink" width="164" height="128"><defs><style type="text/css"></style></defs><path d="M127.974317 0a104.199272 104.199272 0 1 0 104.199272 104.199272 104.199272 104.199272 0 0 0-104.199272-104.199272z m0 170.241064a66.041792 66.041792 0 1 1 66.041792-66.041792 66.041792 66.041792 0 0 1-66.041792 66.041792zM1184.64299 0.308195a104.199272 104.199272 0 1 0 104.199272 104.199272 104.199272 104.199272 0 0 0-104.199272-104.199272z m0 170.241064a66.041792 66.041792 0 1 1 66.041792-66.041792 66.041792 66.041792 0 0 1-66.041792 66.041792z" fill="#FF8236" p-id="11216"></path><path d="M205.977011 75.977413h901.118239v41.09267H205.977011zM155.330295 173.880701v734.95709h-41.092671V173.880701zM1198.555794 173.880701v734.95709h-41.09267V173.880701z" fill="#FF8236" p-id="11217"></path><path d="M0 888.981225v135.018775h1312.030269v-135.018775z m1273.872789 96.861295h-1235.715309v-58.703815h1235.715309zM328.9028 557.069854a82.185341 82.185341 0 1 0 82.185342 82.185341 82.185341 82.185341 0 0 0-82.185342-82.185341z m-1.540975 126.213203a44.027861 44.027861 0 1 1 44.027862-44.027862 44.027861 44.027861 0 0 1-44.027862 44.027862zM538.607504 348.421819a82.185341 82.185341 0 1 0 82.185341 82.185341 82.185341 82.185341 0 0 0-82.185341-82.185341z m-1.555651 126.213203a44.027861 44.027861 0 1 1 44.027862-44.027862 44.027861 44.027861 0 0 1-44.042538 44.027862zM751.408834 578.922349a82.185341 82.185341 0 1 0 82.185341 82.185342 82.185341 82.185341 0 0 0-82.185341-82.185342z m-1.540975 126.213203a44.027861 44.027861 0 1 1 44.027861-44.027861 44.027861 44.027861 0 0 1-44.071889 44.027861zM963.887293 361.718233a82.185341 82.185341 0 1 0 82.185342 82.185341 82.185341 82.185341 0 0 0-82.185342-82.185341z m-1.467595 126.213203a44.027861 44.027861 0 1 1 44.027861-44.027862 44.027861 44.027861 0 0 1-44.101241 44.027862z" fill="#FF8236" p-id="11218"></path><path d="M781.151122 620.452363l136.982418-136.982417 26.980273 26.981741-136.982417 136.982417zM353.608301 593.24608l136.982418-136.982417 26.981741 26.981741-136.982418 136.982417zM576.845702 469.22253l136.982417 136.983885-26.981741 26.980273-136.982417-136.982417z" fill="#FF8236" p-id="11219"></path></svg>