<?xml version="1.0" standalone="no"?><!DOCTYPE svg PUBLIC "-//W3C//DTD SVG 1.1//EN" "http://www.w3.org/Graphics/SVG/1.1/DTD/svg11.dtd"><svg t="1623737763264" class="icon" viewBox="0 0 1024 1024" version="1.1" xmlns="http://www.w3.org/2000/svg" p-id="2525" width="64" height="64" xmlns:xlink="http://www.w3.org/1999/xlink"><defs><style type="text/css"></style></defs><path d="M797.257143 424.764952c-10.727619 0-21.455238 1.950476-30.915048 5.168762-1.26781-0.633905-1.901714-0.633905-3.120762-1.267809-18.919619-31.012571-50.468571-49.737143-86.406095-49.737143-11.946667 0-23.942095 1.950476-35.303619 5.851428a99.961905 99.961905 0 0 0-107.178667-49.737142V276.918857c0-60.708571-45.348571-107.812571-103.375238-107.812571-58.660571 0-105.910857 48.420571-105.910857 107.763809v284.769524l-16.432762-16.774095c-18.870857-19.358476-45.348571-29.696-74.361905-29.696-29.013333 0-57.392762 10.971429-75.678476 29.744762-39.69219 40.618667-52.955429 111.030857-6.290285 158.768762l237.665523 243.419428c5.705143 5.851429 11.995429 10.337524 18.285715 14.872381 44.763429 36.815238 97.718857 61.342476 209.968762 61.342476 261.022476 0 283.062857-156.91581 283.062857-317.683809v-173.056c0.633905-60.025905-44.129524-107.76381-104.009143-107.76381zM260.096 477.720381a23.113143 23.113143 0 0 0 12.629333 4.534857c6.290286 0 12.580571-3.267048 16.384-8.387048a21.211429 21.211429 0 0 0-4.388571-29.744761A222.598095 222.598095 0 0 1 196.998095 265.947429c0-122.684952 97.084952-222.110476 216.892953-222.110477 119.759238 0 216.84419 99.425524 216.84419 221.476572 0 14.823619-1.219048 29.696-4.388571 44.519619a21.26019 21.26019 0 0 0 16.384 25.209905 21.308952 21.308952 0 0 0 24.576-16.822858c3.169524-17.408 5.071238-34.864762 5.071238-52.906666 0-145.944381-116.053333-264.777143-258.486857-264.777143C271.457524 0.585143 155.452952 119.417905 155.452952 265.362286c0.633905 83.285333 39.058286 162.669714 104.643048 212.406857z" fill="#69D5D5" p-id="2526"></path></svg>