<?xml version="1.0" standalone="no"?><!DOCTYPE svg PUBLIC "-//W3C//DTD SVG 1.1//EN" "http://www.w3.org/Graphics/SVG/1.1/DTD/svg11.dtd"><svg t="1623738050162" class="icon" viewBox="0 0 1024 1024" version="1.1" xmlns="http://www.w3.org/2000/svg" p-id="5845" xmlns:xlink="http://www.w3.org/1999/xlink" width="128" height="128"><defs><style type="text/css"></style></defs><path d="M512 2C230.3 2 2 230.3 2 512s228.3 510 510 510 510-228.3 510-510S793.7 2 512 2z m268.6 763.2c0 17-13.9 30.8-30.8 30.8H274.2c-17 0-30.8-13.9-30.8-30.8v-8.8c0-17 13.9-30.8 30.8-30.8h44V289.3c0-33.7 27.6-61.3 61.3-61.3h265c33.7 0 61.3 27.6 61.3 61.3v436.3h44c17 0 30.8 13.9 30.8 30.8v8.8z" fill="#35BAD8" p-id="5846"></path><path d="M749.8 725.5h-44V289.3c0-33.7-27.6-61.3-61.3-61.3h-265c-33.7 0-61.3 27.6-61.3 61.3v436.3h-44c-17 0-30.8 13.9-30.8 30.8v8.8c0 17 13.9 30.8 30.8 30.8h475.6c17 0 30.8-13.9 30.8-30.8v-8.8c0-17-13.8-30.9-30.8-30.9z m-266.6-73.9c0 8.2-6.8 15-15 15h-38.1c-8.2 0-15-6.8-15-15v-38.1c0-8.2 6.8-15 15-15h38.1c8.2 0 15 6.8 15 15v38.1z m0-120.5c0 8.2-6.8 15-15 15h-38.1c-8.2 0-15-6.8-15-15V493c0-8.2 6.8-15 15-15h38.1c8.2 0 15 6.8 15 15v38.1z m0-120.6c0 8.2-6.8 15-15 15h-38.1c-8.2 0-15-6.8-15-15v-38.1c0-8.2 6.8-15 15-15h38.1c8.2 0 15 6.8 15 15v38.1z m125.7 241.1c0 8.2-6.8 15-15 15h-38.1c-8.2 0-15-6.8-15-15v-38.1c0-8.2 6.8-15 15-15h38.1c8.2 0 15 6.8 15 15v38.1z m0-120.5c0 8.2-6.8 15-15 15h-38.1c-8.2 0-15-6.8-15-15V493c0-8.2 6.8-15 15-15h38.1c8.2 0 15 6.8 15 15v38.1z m0-120.6c0 8.2-6.8 15-15 15h-38.1c-8.2 0-15-6.8-15-15v-38.1c0-8.2 6.8-15 15-15h38.1c8.2 0 15 6.8 15 15v38.1z" fill="#FFFFFF" p-id="5847"></path><path d="M468.2 357.4h-38.1c-8.2 0-15 6.8-15 15v38.1c0 8.2 6.8 15 15 15h38.1c8.2 0 15-6.8 15-15v-38.1c0-8.2-6.8-15-15-15zM593.9 357.4h-38.1c-8.2 0-15 6.8-15 15v38.1c0 8.2 6.8 15 15 15h38.1c8.2 0 15-6.8 15-15v-38.1c0-8.2-6.7-15-15-15zM593.9 477.9h-38.1c-8.2 0-15 6.8-15 15V531c0 8.2 6.8 15 15 15h38.1c8.2 0 15-6.8 15-15v-38.1c0-8.2-6.7-15-15-15zM593.9 598.5h-38.1c-8.2 0-15 6.8-15 15v38.1c0 8.2 6.8 15 15 15h38.1c8.2 0 15-6.8 15-15v-38.1c0-8.3-6.7-15-15-15zM468.2 477.9h-38.1c-8.2 0-15 6.8-15 15V531c0 8.2 6.8 15 15 15h38.1c8.2 0 15-6.8 15-15v-38.1c0-8.2-6.8-15-15-15zM468.2 598.5h-38.1c-8.2 0-15 6.8-15 15v38.1c0 8.2 6.8 15 15 15h38.1c8.2 0 15-6.8 15-15v-38.1c0-8.3-6.8-15-15-15z" fill="#35BAD8" p-id="5848"></path></svg>