<?xml version="1.0" standalone="no"?><!DOCTYPE svg PUBLIC "-//W3C//DTD SVG 1.1//EN" "http://www.w3.org/Graphics/SVG/1.1/DTD/svg11.dtd"><svg t="1623737903328" class="icon" viewBox="0 0 1024 1024" version="1.1" xmlns="http://www.w3.org/2000/svg" p-id="3712" xmlns:xlink="http://www.w3.org/1999/xlink" width="128" height="128"><defs><style type="text/css"></style></defs><path d="M0 0h1024v1024H0z" fill="#D5E9E8" p-id="3713"></path><path d="M0 0h1024v1024H0V0z m51.2 51.2v921.6h921.6V51.2H51.2z" fill="#303646" p-id="3714"></path><path d="M0 0h1024v256H0z" fill="#FFC83B" p-id="3715"></path><path d="M0 0h1024v256H0V0z m51.2 51.2v153.6h921.6V51.2H51.2z" fill="#303646" p-id="3716"></path><path d="M0 204.8h256v819.2H0z" fill="#ECBD4A" p-id="3717"></path><path d="M0 204.8h256v819.2H0V204.8z m51.2 51.2v716.8h153.6V256H51.2z" fill="#303646" p-id="3718"></path><path d="M0 512V460.8h1024v51.2H0z m51.2 256v-51.2h972.8v51.2H51.2z" fill="#303646" p-id="3719"></path></svg>