<?xml version="1.0" standalone="no"?><!DOCTYPE svg PUBLIC "-//W3C//DTD SVG 1.1//EN" "http://www.w3.org/Graphics/SVG/1.1/DTD/svg11.dtd"><svg t="1623739108394" class="icon" viewBox="0 0 1024 1024" version="1.1" xmlns="http://www.w3.org/2000/svg" p-id="24770" xmlns:xlink="http://www.w3.org/1999/xlink" width="128" height="128"><defs><style type="text/css"></style></defs><path d="M48.267439 910.83066a463.629234 113.16934 0 1 0 927.258467 0 463.629234 113.16934 0 1 0-927.258467 0Z" fill="#FF7B03" p-id="24771"></path><path d="M233.764765 910.83066a278.131907 67.764706 0 1 0 556.263815 0 278.131907 67.764706 0 1 0-556.263815 0Z" fill="#FFFFFF" p-id="24772"></path><path d="M965.943019 362.096257L849.351218 27.151515c-8.213904-22.816399-40.385027-33.768271-71.871658-22.816399l-93.547237 50.652406a347.721925 347.721925 0 0 1-130.053476 39.700535l-63.42959 6.160428a446.516934 446.516934 0 0 0-192.798574 65.026738l-21.219251 12.549019c-31.258467 10.951872-50.196078 39.016043-41.982175 62.516934l116.591801 334.944742 120.470588 346.581105a28.064171 28.064171 0 0 0 52.934046-18.481283l-104.955436-304.142603 4.106952-1.14082 19.393939-11.864527a447.201426 447.201426 0 0 1 198.502674-65.026738l45.632798-3.878788a344.983957 344.983957 0 0 0 132.56328-38.787879l104.042781-54.759358c31.486631-10.723708 50.424242-38.559715 42.210339-62.28877z" fill="#0096FF" p-id="24773"></path></svg>