<?xml version="1.0" standalone="no"?><!DOCTYPE svg PUBLIC "-//W3C//DTD SVG 1.1//EN" "http://www.w3.org/Graphics/SVG/1.1/DTD/svg11.dtd"><svg t="1623739003230" class="icon" viewBox="0 0 1024 1024" version="1.1" xmlns="http://www.w3.org/2000/svg" p-id="21478" xmlns:xlink="http://www.w3.org/1999/xlink" width="128" height="128"><defs><style type="text/css"></style></defs><path d="M858.041379 962.206897h-706.206896c-49.434483 0-88.275862-38.841379-88.275862-88.275863v-706.206896c0-49.434483 38.841379-88.275862 88.275862-88.275862h706.206896c49.434483 0 88.275862 38.841379 88.275862 88.275862v706.206896c0 49.434483-40.606897 88.275862-88.275862 88.275863z" fill="#FF8A98" p-id="21479"></path><path d="M451.972414 630.289655c1.765517 0 1.765517 0 0 0h8.827586c12.358621 0 24.717241-8.827586 26.482759-21.186207v-1.765517l15.889655-164.193103c0-21.186207-17.655172-38.841379-40.606897-38.84138H257.765517c-22.951724 0-40.606897 17.655172-40.606896 38.84138l15.889655 162.427586v5.296552c1.765517 12.358621 12.358621 21.186207 26.482758 21.186206h10.593104c8.827586 0 15.889655 7.062069 15.889655 14.124138v1.765518l14.124138 171.255172v3.531034c1.765517 12.358621 12.358621 21.186207 26.482759 21.186207h68.855172c12.358621 0 22.951724-8.827586 26.482759-21.186207v-5.296551l14.124138-169.489655v-1.765518c0-8.827586 7.062069-14.124138 15.889655-15.889655zM360.165517 370.758621c49.434483 0 90.041379-38.841379 90.04138-86.510345s-40.606897-86.510345-90.04138-86.510345-90.041379 38.841379-90.041379 86.510345c1.765517 47.668966 40.606897 86.510345 90.041379 86.510345z" fill="#FFFFFF" p-id="21480"></path><path d="M605.572414 384.882759c-31.77931 0-61.793103 7.062069-88.275862 21.186207 0 0 12.358621 10.593103 8.827586 35.310344 22.951724-14.124138 51.2-21.186207 79.448276-21.186207 82.97931 0 150.068966 61.793103 150.068965 139.475863s-67.089655 139.475862-150.068965 139.475862c-47.668966 0-90.041379-21.186207-116.524138-52.965518 0 0-3.531034 8.827586-37.075862 8.827587 33.544828 45.903448 90.041379 75.917241 153.6 75.917241 102.4 0 185.37931-77.682759 185.37931-173.02069-1.765517-95.337931-82.97931-173.02069-185.37931-173.020689z" fill="#FFFFFF" p-id="21481"></path><path d="M624.993103 469.627586H600.275862c-12.358621 0-22.951724 8.827586-22.951724 21.186207v37.075862h-37.075862c-12.358621 0-22.951724 8.827586-22.951724 21.186207v22.951724c0 12.358621 10.593103 21.186207 22.951724 21.186207h37.075862v31.77931c0 12.358621 10.593103 21.186207 22.951724 21.186207h24.717241c12.358621 0 22.951724-8.827586 22.951725-21.186207v-31.77931h37.075862c12.358621 0 22.951724-8.827586 22.951724-21.186207v-22.951724c0-12.358621-10.593103-21.186207-22.951724-21.186207h-37.075862v-37.075862c1.765517-12.358621-8.827586-21.186207-22.951725-21.186207z" fill="#FFFFFF" p-id="21482"></path></svg>