<?xml version="1.0" standalone="no"?><!DOCTYPE svg PUBLIC "-//W3C//DTD SVG 1.1//EN" "http://www.w3.org/Graphics/SVG/1.1/DTD/svg11.dtd"><svg t="1623739640206" class="icon" viewBox="0 0 1024 1024" version="1.1" xmlns="http://www.w3.org/2000/svg" p-id="39097" xmlns:xlink="http://www.w3.org/1999/xlink" width="128" height="128"><defs><style type="text/css"></style></defs><path d="M955.733333 355.555556l1.422223-2.844445-455.111112-270.222222-7.111111 12.8-7.111111-12.8-440.888889 270.222222v2.844445c-18.488889 15.644444-29.866667 38.4-29.866666 64v455.111111c0 46.933333 38.4 85.333333 85.333333 85.333333h796.444444c46.933333 0 85.333333-38.4 85.333334-85.333333v-455.111111c1.422222-25.6-11.377778-48.355556-28.444445-64z m-140.8-21.333334H184.888889l310.044444-190.577778 320 190.577778z m113.777778 540.444445c0 15.644444-12.8 28.444444-28.444444 28.444444h-796.444445c-15.644444 0-28.444444-12.8-28.444444-28.444444v-455.111111c0-15.644444 12.8-28.444444 28.444444-28.444445h796.444445c15.644444 0 28.444444 12.8 28.444444 28.444445v455.111111z" fill="#F25F4A" p-id="39098"></path><path d="M814.933333 476.444444h-625.777777c-15.644444 0-28.444444 12.8-28.444445 28.444445v284.444444c0 15.644444 12.8 28.444444 28.444445 28.444445h625.777777c15.644444 0 28.444444-12.8 28.444445-28.444445v-284.444444c0-15.644444-12.8-28.444444-28.444445-28.444445z" fill="#FFB7AD" p-id="39099"></path></svg>