<?xml version="1.0" standalone="no"?><!DOCTYPE svg PUBLIC "-//W3C//DTD SVG 1.1//EN" "http://www.w3.org/Graphics/SVG/1.1/DTD/svg11.dtd"><svg t="1623739846511" class="icon" viewBox="0 0 1024 1024" version="1.1" xmlns="http://www.w3.org/2000/svg" p-id="43726" xmlns:xlink="http://www.w3.org/1999/xlink" width="128" height="128"><defs><style type="text/css"></style></defs><path d="M927.901474 730.505891l-135.955671-54.665837-285.774725-3.938461-130.441826 58.604298a92.317524 92.317524 0 0 0-69.947066 89.481833l47.261531 181.484279 644.489747 2.993231V819.987724a92.317524 92.317524 0 0 0-69.63199-89.481833z" fill="#24564F" p-id="43727"></path><path d="M927.901474 730.505891l-72.625219-18.11692a553.117453 553.117453 0 0 1-190.306432 234.259656 23.473227 23.473227 0 0 1-26.623996 0 553.117453 553.117453 0 0 1-190.148894-234.259656l-72.62522 18.11692a92.317524 92.317524 0 0 0-69.947066 89.481833l52.775377 186.683048 639.290978-2.205538V819.987724a92.317524 92.317524 0 0 0-69.789528-89.481833z" fill="#B48764" p-id="43728"></path><path d="M536.418458 586.51576h230.636272v87.276294l-115.318136 51.199992-115.318136-46.316301v-92.159985z" fill="#D29B6E" p-id="43729"></path><path d="M859.372254 355.879487V286.720113A161.476898 161.476898 0 0 0 697.895356 125.243215h-92.317524A161.476898 161.476898 0 0 0 444.100934 286.720113v69.159374a46.158762 46.158762 0 1 0 0 92.317525 207.63566 207.63566 0 1 0 415.113782 0 46.158762 46.158762 0 1 0 0-92.317525z" fill="#F0C087" p-id="43730"></path><path d="M559.41907 448.197012V286.720113A161.31936 161.31936 0 0 1 708.923047 126.030907H605.577832a161.476898 161.476898 0 0 0-161.476898 160.689206v69.159374a46.158762 46.158762 0 1 0 0 92.317525A207.163045 207.163045 0 0 0 708.923047 647.483135a207.478122 207.478122 0 0 1-149.503977-199.286123z" fill="#E6AF78" p-id="43731"></path><path d="M490.259696 223.232123a46.158762 46.158762 0 1 0-84.598141 25.363689 57.659068 57.659068 0 1 0 57.659068 15.753843 46.001224 46.001224 0 0 0 26.939073-41.117532zM813.213492 223.232123A46.158762 46.158762 0 1 1 897.969171 248.595812a57.659068 57.659068 0 1 1-57.659068 15.753843 46.001224 46.001224 0 0 1-27.096611-41.117532z" fill="#EEF4FF" p-id="43732"></path><path d="M409.600016 852.59818l-86.803679-86.803679a91.844909 91.844909 0 0 0-17.801844 54.193223l58.604299 186.683048 80.502142-2.205538V934.203091A115.318136 115.318136 0 0 0 409.600016 852.59818zM893.08548 852.59818l86.803679-86.803679a91.844909 91.844909 0 0 1 17.801843 54.193223v184.47751h-138.318748V934.203091a115.318136 115.318136 0 0 1 33.713226-81.604911z" fill="#24564F" p-id="43733"></path><path d="M949.011625 713.49174l-127.606134-38.754455-13.863383-27.726765a19.534766 19.534766 0 0 0-23.15815-9.924922v-4.883692a227.012888 227.012888 0 0 0 94.523062-167.30582 64.748298 64.748298 0 0 0 39.857225-96.571062 76.878757 76.878757 0 0 0 5.04123-133.592595A65.693528 65.693528 0 0 0 834.953796 158.483825a202.121815 202.121815 0 0 0-137.05844-52.775376h-92.317524a202.751969 202.751969 0 0 0-136.900902 52.775376 65.53599 65.53599 0 0 0-88.379064 76.248604 76.878757 76.878757 0 0 0 5.04123 133.592595A64.905836 64.905836 0 0 0 425.353859 465.053624a227.170427 227.170427 0 0 0 93.577832 167.148282v4.883692a19.534766 19.534766 0 0 0-23.000612 9.924922l-13.863382 27.726765-132.647364 39.857224a88.221525 88.221525 0 0 0-63.015375 84.913218h38.911994v-4.253538l77.981526 77.981527a72.310143 72.310143 0 0 1 22.055381 51.35753v79.871988a19.534766 19.534766 0 0 0 38.911994 0v-79.871988a110.276906 110.276906 0 0 0-32.767994-78.769219l-86.488603-86.015986a49.624608 49.624608 0 0 1 15.753844-7.876922l87.74891-26.308919A519.876843 519.876843 0 0 0 640.866442 967.286163a19.534766 19.534766 0 0 0 21.582766 0 517.19869 517.19869 0 0 0 192.827047-241.506425l82.550141 25.048612a20.007382 20.007382 0 0 0 5.671384 0.787692 19.534766 19.534766 0 0 0 5.671384-38.124302z m-89.796909-520.822074A26.623996 26.623996 0 0 1 882.215328 233.944737a19.534766 19.534766 0 0 0 11.02769 29.459688 38.124302 38.124302 0 1 1-38.124302 10.870152 19.534766 19.534766 0 0 0-6.143999-31.507688 26.623996 26.623996 0 0 1 11.027691-50.727376zM382.818481 299.323188a38.124302 38.124302 0 0 1 28.041842-36.548917 19.534766 19.534766 0 0 0 11.027691-29.459688 26.623996 26.623996 0 1 1 48.836915-14.651074 26.781534 26.781534 0 0 1-15.753843 24.10338 19.534766 19.534766 0 0 0-6.143999 31.507688A38.124302 38.124302 0 1 1 382.818481 299.323188z m80.65968 148.086131a19.534766 19.534766 0 0 0-19.534766-19.534766 28.19938 28.19938 0 0 1-28.671996-22.055381 26.466457 26.466457 0 0 1 20.322459-30.562457h2.205538A77.351373 77.351373 0 0 0 498.294156 299.323188a76.248604 76.248604 0 0 0-8.03446-34.18584 65.378451 65.378451 0 0 0 8.979691-82.392603 163.997513 163.997513 0 0 1 106.495983-38.911994h92.159986a163.524898 163.524898 0 0 1 106.495984 38.911994 65.220913 65.220913 0 0 0 8.979691 82.392603 76.248604 76.248604 0 0 0-8.191999 34.18584 77.193834 77.193834 0 0 0 63.015375 75.775989h1.890461a26.623996 26.623996 0 0 1 18.589536 30.089841 28.19938 28.19938 0 0 1-28.671996 22.055382 19.534766 19.534766 0 0 0-19.534766 19.534766 188.100894 188.100894 0 0 1-376.201789 0z m281.993803 207.478122v1.260308l-93.73537 47.261531-94.523062-47.261531v-1.260308a227.012888 227.012888 0 0 0 187.628278 0z m-93.73537 272.541497a488.369156 488.369156 0 0 1-154.23013-185.265202l24.575996-60.337222 100.036908 50.097223 29.617226 15.753844 29.617226-15.753844 100.036908-50.097223 24.733534 60.022145a486.95131 486.95131 0 0 1-154.387668 185.580279z" fill="" p-id="43734"></path><path d="M713.019046 529.644384a19.534766 19.534766 0 1 0-30.24738-24.575996 38.28184 38.28184 0 0 1-61.912606 0 19.534766 19.534766 0 0 0-30.24738 24.575996 77.036296 77.036296 0 0 0 122.564904 0zM559.41907 382.503483a19.534766 19.534766 0 0 0-19.534767 19.534767V425.353938a19.534766 19.534766 0 1 0 38.911994 0v-23.315688a19.534766 19.534766 0 0 0-19.377227-19.534767zM744.054118 444.573628A19.534766 19.534766 0 0 0 763.431346 425.353938v-23.315688a19.534766 19.534766 0 1 0-38.911994 0V425.353938a19.534766 19.534766 0 0 0 19.534766 19.21969zM942.237472 803.446188a19.534766 19.534766 0 0 0-27.569226 0l-42.220301 42.220301a110.276906 110.276906 0 0 0-32.767995 78.769219v79.871987a19.534766 19.534766 0 0 0 39.069532 0v-79.714449a72.310143 72.310143 0 0 1 21.267689-51.515069l42.220301-42.220301a19.534766 19.534766 0 0 0 0-27.411688z" fill="" p-id="43735"></path><path d="M994.85531 1021.794462a17.329228 17.329228 0 0 1-17.329228-17.329228V807.384649a55.926145 55.926145 0 0 0-19.534766-46.158762 52.617838 52.617838 0 0 0-18.589536-9.609845 17.329228 17.329228 0 1 1 6.774153-34.028303 86.961217 86.961217 0 0 1 65.851067 89.79691v197.080585a17.329228 17.329228 0 0 1-17.17169 17.329228z" fill="" p-id="43736"></path><path d="M680.566128 19.534924h-44.425839a244.97227 244.97227 0 0 0-244.97227 244.97227h534.370379A244.97227 244.97227 0 0 0 680.566128 19.534924z" fill="#EE3524" p-id="43737"></path><path d="M943.812857 282.624114H372.89356v-18.11692A263.561806 263.561806 0 0 1 636.140289 1.260465h44.425839a263.246729 263.246729 0 0 1 263.246729 263.246729zM409.600016 246.232735h497.033769A226.85535 226.85535 0 0 0 680.566128 37.651844h-44.425839A227.170427 227.170427 0 0 0 409.600016 246.232735z" fill="" p-id="43738"></path><path d="M736.334735 26.151538a245.917501 245.917501 0 0 0-55.611069-6.616614h-44.583377a244.97227 244.97227 0 0 0-244.97227 244.97227h155.963053A244.97227 244.97227 0 0 1 736.334735 26.151538z" fill="#C62222" p-id="43739"></path><path d="M408.024631 283.569345h534.527918v-19.062151A264.822113 264.822113 0 0 0 677.415359 0.000158h-43.795685a264.822113 264.822113 0 0 0-263.719344 244.97227H210.471431a19.534766 19.534766 0 1 0 0 38.911994H408.024631zM633.619674 38.912152H677.415359a225.752581 225.752581 0 0 1 225.437504 206.060276H409.600016A225.752581 225.752581 0 0 1 633.619674 38.912152z" fill="" p-id="43740"></path><path d="M558.316301 196.608127a18.274459 18.274459 0 0 1-3.938461-35.918763L645.907672 139.89429a17.959382 17.959382 0 0 1 7.876922 0l94.523062 20.795074a18.274459 18.274459 0 0 1-7.719383 35.603686l-91.372294-20.007381-87.906448 19.849843z" fill="" p-id="43741"></path><path d="M79.55699 457.491779h573.439911v405.503938H79.55699z" fill="#DDDDDD" p-id="43742"></path><path d="M671.27136 881.112637H61.440069v-441.107624h609.831291z m-573.439912-36.391379H634.879981V475.6087H97.831448z" fill="" p-id="43743"></path><path d="M86.961296 513.733002h564.775298v36.391379H86.961296zM86.961296 771.9385h564.775298v36.391379H86.961296z" fill="" p-id="43744"></path><path d="M366.434484 660.08621m-150.764285 0a150.764284 150.764284 0 1 0 301.528569 0 150.764284 150.764284 0 1 0-301.528569 0Z" fill="#34184C" p-id="43745"></path><path d="M366.434484 829.124953A168.881205 168.881205 0 1 1 535.630766 660.08621a169.196282 169.196282 0 0 1-169.196282 169.038743z m0-301.528569a132.489826 132.489826 0 1 0 132.489826 132.489826 132.647364 132.647364 0 0 0-132.489826-132.489826z" fill="" p-id="43746"></path><path d="M366.434484 660.08621m-79.714449 0a79.714449 79.714449 0 1 0 159.428898 0 79.714449 79.714449 0 1 0-159.428898 0Z" fill="#DDDDDD" p-id="43747"></path><path d="M366.434484 758.075118a97.83137 97.83137 0 1 1 97.831369-97.83137 97.988908 97.988908 0 0 1-97.831369 97.83137z m0-159.428899a61.439991 61.439991 0 1 0 61.43999 61.439991 61.597529 61.597529 0 0 0-61.43999-61.439991z" fill="" p-id="43748"></path><path d="M151.07944 403.771172h166.36059v48.521839H151.07944z" fill="#34184C" p-id="43749"></path><path d="M317.44003 470.409931H151.07944a18.274459 18.274459 0 0 1-18.11692-18.11692v-48.521839a18.274459 18.274459 0 0 1 18.11692-18.274458h166.36059a18.274459 18.274459 0 0 1 18.11692 18.274458v48.521839a18.11692 18.11692 0 0 1-18.11692 18.11692z m-148.086131-36.391379H299.32311v-12.130459h-129.969211zM334.139104 1004.937849v-107.441214h58.919376v107.441214" fill="" p-id="43750"></path><path d="M393.05848 1023.212308a18.274459 18.274459 0 0 1-18.11692-18.11692v-89.324294h-22.685535v89.166755a18.11692 18.11692 0 0 1-36.391379 0V897.96925a18.11692 18.11692 0 0 1 18.11692-18.11692h58.919375A18.11692 18.11692 0 0 1 411.1754 897.96925v107.441214a18.274459 18.274459 0 0 1-18.11692 17.801844z" fill="" p-id="43751"></path><path d="M254.424655 862.838179h218.348274v58.919375H254.424655z" fill="#3E454C" p-id="43752"></path><path d="M490.889849 940.032013H236.307735v-94.523062h254.582114zM272.541575 903.640634h181.956895v-22.527997H272.541575z" fill="" p-id="43753"></path><path d="M160.846823 595.495451a51.987684 51.987684 0 0 1-51.987684 51.987684L81.920066 716.800047a51.987684 51.987684 0 0 1-51.987684-51.987684v-115.475675a51.987684 51.987684 0 0 1 51.987684-51.987684h26.939073a51.987684 51.987684 0 0 1 51.987684 51.987684z" fill="#E6AF78" p-id="43754"></path><path d="M94.523141 734.916968h-12.603075A70.262143 70.262143 0 0 1 11.815462 664.812363v-115.475675a70.262143 70.262143 0 0 1 70.104604-70.262143h26.939073a70.262143 70.262143 0 0 1 70.104605 70.262143v46.158763a70.262143 70.262143 0 0 1-57.186453 69.001835z m-12.603075-219.451044a33.870764 33.870764 0 0 0-33.713225 33.870764v115.475675a33.870764 33.870764 0 0 0 22.055381 31.507687l26.15138-67.268912h12.445537a33.870764 33.870764 0 0 0 33.713226-33.555687v-46.158763a33.870764 33.870764 0 0 0-33.713226-33.870764z" fill="" p-id="43755"></path></svg>