<?xml version="1.0" standalone="no"?><!DOCTYPE svg PUBLIC "-//W3C//DTD SVG 1.1//EN" "http://www.w3.org/Graphics/SVG/1.1/DTD/svg11.dtd"><svg t="1623739821596" class="icon" viewBox="0 0 1024 1024" version="1.1" xmlns="http://www.w3.org/2000/svg" p-id="42779" xmlns:xlink="http://www.w3.org/1999/xlink" width="128" height="128"><defs><style type="text/css"></style></defs><path d="M879.304348 3.180124H162.186335c-47.701863 0-89.043478 42.931677-89.043478 93.813665v131.975155c0 12.720497 7.950311 20.670807 20.670808 20.670808h30.21118c12.720497 4.770186 17.490683 7.950311 17.490683 17.490683 0 7.950311-7.950311 17.490683-17.490683 17.490683H93.813665c-12.720497 0-20.670807 7.950311-20.670808 20.670807v170.136646c0 12.720497 7.950311 20.670807 20.670808 20.670808h30.21118c7.950311 0 17.490683 7.950311 17.490683 17.490683s-4.770186 17.490683-12.720497 17.490683H93.813665c-12.720497 0-20.670807 7.950311-20.670808 20.670808v170.136646c0 12.720497 7.950311 20.670807 20.670808 20.670807h30.21118c7.950311 0 17.490683 7.950311 17.490683 17.490683s-7.950311 17.490683-17.490683 17.490684H93.813665c-12.720497 0-20.670807 7.950311-20.670808 20.670807v131.975155c0 50.881988 42.931677 93.813665 89.043478 93.813665h712.347826c50.881988 0 89.043478-42.931677 89.043479-93.813665V96.993789c6.360248-50.881988-36.571429-93.813665-84.273292-93.813665z m-763.229814 923.826087v-109.714286h7.950311c33.391304 0 60.42236-25.440994 60.42236-58.832298S159.006211 699.627329 124.024845 699.627329h-7.950311v-127.204969h7.950311c33.391304 0 60.42236-25.440994 60.42236-58.832298s-25.440994-58.832298-60.42236-58.832298h-7.950311v-127.204969h7.950311c33.391304 0 60.42236-25.440994 60.42236-58.832298s-25.440994-58.832298-60.42236-58.832298h-7.950311V96.993789c0-25.440994 20.670807-50.881988 47.701864-50.881988h98.58385v933.36646H162.186335c-25.440994-1.590062-46.111801-27.031056-46.111801-52.47205z m810.931677 0c0 30.21118-20.670807 50.881988-47.701863 50.881988H300.521739V46.111801h578.782609c25.440994 0 47.701863 25.440994 47.701863 50.881988v830.012422z" fill="#00A9F4" p-id="42780"></path><path d="M769.590062 648.745342c-19.080745-14.310559-41.341615-27.031056-65.192546-34.981367 12.720497-7.950311 23.850932-15.900621 33.391304-25.440994 33.391304-33.391304 50.881988-77.913043 50.881987-124.024844V461.118012c9.540373-6.360248 15.900621-15.900621 15.900622-28.621118v-62.012422l79.503105-22.26087c7.950311-1.590062 7.950311-14.310559 0-15.900621l-254.409938-71.552795c-9.540373-3.180124-20.670807-3.180124-31.801242 0l-254.409938 73.142857c-7.950311 1.590062-7.950311 14.310559 0 15.900622l14.310559 4.770186V492.919255c0 11.130435 9.540373 20.670807 20.670808 20.670807 11.130435 0 20.670807-9.540373 20.670807-20.670807v-125.614907l22.26087 6.360248v62.012423c0 12.720497 7.950311 22.26087 15.900621 28.621118v1.590062c0 46.111801 19.080745 90.63354 50.881987 124.024844 9.540373 9.540373 20.670807 19.080745 33.391305 25.440994-23.850932 7.950311-44.521739 20.670807-65.192547 34.981367-44.521739 33.391304-79.503106 79.503106-96.993789 131.975155-4.770186 11.130435 1.590062 25.440994 14.310559 28.621118 9.540373 1.590062 19.080745-3.180124 23.850932-11.130435 0 0 0-1.590062 1.590062-1.590062 15.900621-44.521739 44.521739-84.273292 82.68323-112.89441 77.913043-58.832298 182.857143-58.832298 260.770186 0 38.161491 28.621118 66.782609 68.372671 82.68323 112.89441 3.180124 11.130435 15.900621 17.490683 27.031056 12.720497 11.130435-3.180124 17.490683-15.900621 12.720497-27.031056-15.900621-55.652174-50.881988-101.763975-95.403727-135.155279z m-154.236025-195.57764h-27.031056c-39.751553-3.180124-79.503106-14.310559-116.074534-31.801242-1.590062-1.590062-3.180124-1.590062-6.360248-1.590062v-28.621118l143.10559 39.751552c3.180124 1.590062 7.950311 1.590062 11.130435 0l143.10559-39.751552v28.621118c-1.590062 0-4.770186 1.590062-6.360249 1.590062-36.571429 17.490683-76.322981 28.621118-116.074534 31.801242h-25.440994z m12.720497-151.055901l120.844721 34.981367c3.180124 0 3.180124 4.770186 0 4.770186l-120.844721 34.981366c-9.540373 3.180124-19.080745 3.180124-28.621118 0L480.198758 341.863354c-3.180124 0-3.180124-4.770186 0-4.770186l120.84472-34.981367c9.540373-1.590062 19.080745-1.590062 27.031056 0z m-144.695652 178.086957c27.031056 7.950311 62.012422 12.720497 101.763975 14.310559 9.540373 1.590062 20.670807 1.590062 30.21118 1.590062s20.670807 0 30.21118-1.590062c38.161491-1.590062 74.732919-6.360248 101.763976-14.310559-9.540373 73.142857-76.322981 124.024845-149.465839 114.484472-60.42236-7.950311-106.534161-54.062112-114.484472-114.484472z" fill="#00A9F4" p-id="42781"></path></svg>