<?xml version="1.0" standalone="no"?><!DOCTYPE svg PUBLIC "-//W3C//DTD SVG 1.1//EN" "http://www.w3.org/Graphics/SVG/1.1/DTD/svg11.dtd"><svg t="1623739684156" class="icon" viewBox="0 0 1203 1024" version="1.1" xmlns="http://www.w3.org/2000/svg" p-id="40924" xmlns:xlink="http://www.w3.org/1999/xlink" width="150.375" height="128"><defs><style type="text/css"></style></defs><path d="M925.233233 542.728274l-11.283332-7.14611 9.101888-9.816499a152.362595 152.362595 0 1 0-263.729083-103.806655 150.782928 150.782928 0 0 0 41.372218 103.731433l9.289943 9.85411-11.283332 7.221333a213.593477 213.593477 0 0 0-72.777492 76.726658 210.622199 210.622199 0 0 0-26.327775 102.114155 32.759274 32.759274 0 1 0 65.55616 0 146.683317 146.683317 0 0 1 293.629912 0 32.796885 32.796885 0 0 0 32.759275 32.759275 33.361052 33.361052 0 0 0 33.285829-32.834497A210.885477 210.885477 0 0 0 925.233233 542.728274z m-26.591053-120.355542a87.032102 87.032102 0 1 1-87.032101-87.032102 87.144935 87.144935 0 0 1 87.032101 86.844046z" fill="#488FFA" p-id="40925"></path><path d="M1050.967164 0H152.588261A152.738706 152.738706 0 0 0 0 152.588261v718.823478a152.738706 152.738706 0 0 0 152.588261 152.588261h898.378903A152.738706 152.738706 0 0 0 1203.555425 871.411739V152.588261A152.738706 152.738706 0 0 0 1050.967164 0z m87.032101 152.588261v718.823478a87.144935 87.144935 0 0 1-87.032101 87.032101H152.588261a87.144935 87.144935 0 0 1-87.032101-87.032101V152.588261a87.144935 87.144935 0 0 1 87.032101-87.032101h898.378903a87.144935 87.144935 0 0 1 87.032101 87.032101z" fill="#488FFA" p-id="40926"></path><path d="M477.059282 488.154558H208.290311a34.903107 34.903107 0 0 0-34.903108 34.97833v0.188055a34.97833 34.97833 0 0 0 34.903108 34.827885h268.806582a34.903107 34.903107 0 0 0 34.903107-34.978329v-0.225667a34.97833 34.97833 0 0 0-34.940718-34.790274zM477.059282 277.56997H208.290311a34.677441 34.677441 0 0 0-24.672886 10.230221 35.128774 35.128774 0 0 0 0 49.571439 34.715052 34.715052 0 0 0 24.710497 10.230221h268.73136a34.940718 34.940718 0 0 0 35.01594-34.978329 35.203996 35.203996 0 0 0-10.230221-24.823331 34.715052 34.715052 0 0 0-24.785719-10.230221zM477.059282 668.687872H208.365533a35.053552 35.053552 0 0 0-24.78572 59.80166 34.677441 34.677441 0 0 0 24.672887 10.230221h268.844193a34.940718 34.940718 0 0 0 34.903107-34.978329v-0.225667a34.97833 34.97833 0 0 0-34.940718-34.827885z" fill="#488FFA" p-id="40927"></path></svg>