<?xml version="1.0" standalone="no"?><!DOCTYPE svg PUBLIC "-//W3C//DTD SVG 1.1//EN" "http://www.w3.org/Graphics/SVG/1.1/DTD/svg11.dtd"><svg t="1623738472482" class="icon" viewBox="0 0 1024 1024" version="1.1" xmlns="http://www.w3.org/2000/svg" p-id="12969" xmlns:xlink="http://www.w3.org/1999/xlink" width="128" height="128"><defs><style type="text/css"></style></defs><path d="M320 289.194667c12.424533-91.579733 86.016-117.418667 220.808533-77.448534-81.322667 20.462933-126.122667 46.2848-134.4 77.448534 33.911467-5.700267 64.221867-4.693333 90.9312 3.037866A204.2368 204.2368 0 0 0 486.4 358.4c0 17.271467 2.133333 34.048 6.161067 50.0736a516.352 516.352 0 0 0-58.436267-6.8608c30.088533 59.665067 42.973867 122.538667 38.673067 188.654933A280.302933 280.302933 0 0 0 409.6 768v51.2h-204.8c0-92.1088 69.495467-167.9872 158.907733-178.056533 45.226667-83.8656 54.306133-163.4304 27.2896-238.660267-5.2224 0.682667-9.728 1.655467-13.397333 2.884267-45.738667 15.36-148.770133 69.870933-194.5088 223.368533-31.163733-141.602133-11.127467-232.192 60.1088-271.7696-38.4 0-89.6 19.3536-153.6 58.077867 44.8-129.0752 121.6-171.042133 230.4-125.8496z" fill="#2FC279" fill-opacity=".5" p-id="12970"></path><path d="M691.2 358.4m-153.6 0a153.6 153.6 0 1 0 307.2 0 153.6 153.6 0 1 0-307.2 0Z" fill="#2FC279" p-id="12971"></path><path d="M691.2 537.6c127.249067 0 230.4 103.150933 230.4 230.4V844.8h-460.8v-76.8C460.8 640.750933 563.950933 537.6 691.2 537.6z" fill="#2FC279" p-id="12972"></path></svg>