<?xml version="1.0" standalone="no"?><!DOCTYPE svg PUBLIC "-//W3C//DTD SVG 1.1//EN" "http://www.w3.org/Graphics/SVG/1.1/DTD/svg11.dtd"><svg t="1623738625922" class="icon" viewBox="0 0 1061 1024" version="1.1" xmlns="http://www.w3.org/2000/svg" p-id="14212" xmlns:xlink="http://www.w3.org/1999/xlink" width="132.625" height="128"><defs><style type="text/css"></style></defs><path d="M12.818963 909.236148V93.639111c-3.868444 154.206815-3.868444 646.257778 0 815.597037" fill="#FFBA3B" opacity=".8" p-id="14213"></path><path d="M811.576889 98.872889C810.097778 48.31763 792.348444 30.416593 750.667852 29.771852h-122.121482c2.275556 88.367407-0.227556 288.464593-0.227555 288.464592a17.066667 17.066667 0 0 1-25.979259 14.601482l-57.381926-35.536593a17.142519 17.142519 0 0 0-17.863111 0l-57.381926 35.536593a17.066667 17.066667 0 0 1-25.97926-14.601482c-3.185778-121.552593-0.83437-254.672593-0.151703-288.464592H168.732444v932.901926h581.935408c31.402667 0 56.168296-25.524148 56.813037-57.078519 2.616889-135.774815 10.012444-601.429333 4.096-806.72237" fill="#05A9D9" opacity=".8" p-id="14214"></path><path d="M69.480296 29.771852a59.543704 59.543704 0 0 0-59.543703 59.543704c0.758519-32.843852 26.661926-59.543704 59.543703-59.543704M9.936593 903.130074c0 32.919704 26.661926 59.543704 59.543703 59.543704-32.881778 0-58.823111-26.624-59.543703-59.543704" fill="#FFBA3B" opacity=".8" p-id="14215"></path><path d="M65.72563 29.771852C34.929778 29.771852 10.657185 55.333926 9.936593 86.85037v818.706963c0.644741 31.55437 24.993185 57.116444 55.789037 57.116445H168.77037V29.771852H65.72563z" fill="#FB536C" opacity=".8" p-id="14216"></path><path d="M634.955852 20.48C634.652444 10.543407 627.143111 2.389333 617.547852 2.389333H464.175407A17.749333 17.749333 0 0 0 446.767407 20.48L446.615704 29.240889h188.567703l-0.227555-8.722963" fill="#FB536C" opacity=".8" p-id="14217"></path><path d="M448.246519 319.601778c0.379259 13.918815 14.715259 22.452148 26.130962 15.17037l57.72326-36.901926a16.763259 16.763259 0 0 1 18.014815 0l57.723259 36.901926c11.415704 7.281778 26.168889-1.251556 26.168889-15.17037 0 0 2.465185-207.947852 0.227555-299.766519h-186.140444c-0.720593 35.119407-3.034074 173.435259 0.151704 299.766519" fill="#FF7C20" opacity=".8" p-id="14218"></path><path d="M449.080889 518.447407h591.68237s40.12563 76.079407 0 143.54963H450.635852S484.54163 614.134519 449.042963 518.447407" fill="#FDBA3E" opacity=".8" p-id="14219"></path><path d="M449.080889 696.850963h591.68237s40.12563 75.662222 0 142.866963H450.635852S484.54163 792.120889 449.042963 696.850963" fill="#FDBA3E" opacity=".8" p-id="14220"></path><path d="M449.080889 884.280889h591.68237s40.12563 73.083259 0 137.974518H450.635852S484.54163 976.213333 449.042963 884.280889" fill="#FDBA3E" opacity=".8" p-id="14221"></path></svg>