<?xml version="1.0" standalone="no"?><!DOCTYPE svg PUBLIC "-//W3C//DTD SVG 1.1//EN" "http://www.w3.org/Graphics/SVG/1.1/DTD/svg11.dtd"><svg t="1623739449839" class="icon" viewBox="0 0 1024 1024" version="1.1" xmlns="http://www.w3.org/2000/svg" p-id="34888" xmlns:xlink="http://www.w3.org/1999/xlink" width="128" height="128"><defs><style type="text/css"></style></defs><path d="M0 512c0 282.768 229.232 512 512 512 282.768 0 512-229.232 512-512C1024 229.232 794.768 0 512 0 229.232 0 0 229.232 0 512z" fill="#85A5FF" p-id="34889"></path><path d="M771.2 704c18.288 0 27.856 9.68 28.736 29.024L800 736c0 21.328-9.6 32-28.8 32H252.8c-18.288 0-27.856-9.68-28.736-29.024L224 736c0-21.328 9.6-32 28.8-32h518.4z m0-192c18.288 0 27.856 9.68 28.736 29.024L800 544c0 21.328-9.6 32-28.8 32h-134.4c-18.288 0-27.856-9.68-28.736-29.024L608 544c0-21.328 9.6-32 28.8-32h134.4zM368.128 272a28.976 28.976 0 0 1 27.104 16.768l114.32 245.872c6.336 14.448-0.016 31.344-14.288 38.016a28.96 28.96 0 0 1-38.24-13.44l-25.472-54.72h-120.576c-1.36 0-2.72-0.08-4.032-0.272l-1.952-0.352-25.712 55.328a28.96 28.96 0 0 1-38.528 14.08 29.12 29.12 0 0 1-14.032-38.64l114.368-245.872a28.976 28.976 0 0 1 27.04-16.752z m0.032 96.096L331.744 446.4h72.8l-36.384-78.288zM771.2 320c18.288 0 27.856 9.68 28.736 29.024L800 352c0 21.328-9.6 32-28.8 32h-134.4c-18.288 0-27.856-9.68-28.736-29.024L608 352c0-21.328 9.6-32 28.8-32h134.4z" fill="#FFFFFF" p-id="34890"></path></svg>