<?xml version="1.0" standalone="no"?><!DOCTYPE svg PUBLIC "-//W3C//DTD SVG 1.1//EN" "http://www.w3.org/Graphics/SVG/1.1/DTD/svg11.dtd"><svg t="1623738568105" class="icon" viewBox="0 0 1081 1024" version="1.1" xmlns="http://www.w3.org/2000/svg" p-id="13287" xmlns:xlink="http://www.w3.org/1999/xlink" width="135.125" height="128"><defs><style type="text/css"></style></defs><path d="M773.083399 797.140178v-67.550977a141.706938 141.706938 0 1 1 196.16053-130.786196 143.620882 143.620882 0 0 1-82.825003 130.786196v67.550977h124.406382a69.389864 69.389864 0 0 1 69.765147 71.94179v69.765147H579.249624v-71.94179a68.864468 68.864468 0 0 1 69.765148-69.765147z m-165.650006 170.003291h444.673067v56.667764H607.433393z" fill="#CC4D3C" p-id="13288"></path><path d="M739.232854 0.263824H123.205476A115.587227 115.587227 0 0 0 0 109.095953v805.808094a115.587227 115.587227 0 0 0 123.205476 108.832129h330.249218v-135.101953a161.371777 161.371777 0 0 1 165.12461-150.113282 207.756781 207.756781 0 0 1-39.442265-119.790398c0-121.967041 110.896187-219.953485 246.410951-219.953485 12.309289 0 24.656106 2.176643 36.965396 2.176642V109.133481A115.587227 115.587227 0 0 0 739.30791 0.301352z m-221.754845 479.124066H197.136267a46.835344 46.835344 0 0 1-49.274685-43.57038 46.835344 46.835344 0 0 1 49.274685-43.57038h320.341742a46.835344 46.835344 0 0 1 49.274684 43.57038 46.835344 46.835344 0 0 1-49.274684 43.57038z m172.630273-196.010417H197.136267A46.835344 46.835344 0 0 1 147.861582 239.807093a46.835344 46.835344 0 0 1 49.274685-43.57038h492.821902a46.835344 46.835344 0 0 1 49.274685 43.57038 46.835344 46.835344 0 0 1-49.274685 43.57038z" fill="#CC4D3C" p-id="13289"></path></svg>