<?xml version="1.0" standalone="no"?><!DOCTYPE svg PUBLIC "-//W3C//DTD SVG 1.1//EN" "http://www.w3.org/Graphics/SVG/1.1/DTD/svg11.dtd"><svg t="1623738896627" class="icon" viewBox="0 0 1024 1024" version="1.1" xmlns="http://www.w3.org/2000/svg" p-id="17517" xmlns:xlink="http://www.w3.org/1999/xlink" width="128" height="128"><defs><style type="text/css"></style></defs><path d="M137.898667 1024c-10.922667 0-21.845333-5.461333-30.037334-10.922667-5.461333-8.192-10.922667-19.114667-10.922666-30.037333V40.96C96.938667 30.037333 102.4 19.114667 107.861333 10.922667 116.053333 5.461333 126.976 0 137.898667 0h748.202666c21.845333 0 40.96 19.114667 40.96 40.96v737.28c0 8.192-5.461333 13.653333-13.653333 13.653333s-13.653333-5.461333-13.653333-13.653333v-737.28c0-8.192-5.461333-13.653333-13.653334-13.653333H137.898667c-2.730667 0-8.192 2.730667-10.922667 2.730666-2.730667 2.730667-2.730667 8.192-2.730667 10.922667V983.04c0 2.730667 2.730667 8.192 5.461334 10.922667 2.730667 2.730667 5.461333 5.461333 10.922666 2.730666h554.325334c8.192 0 13.653333 5.461333 13.653333 13.653334s-5.461333 13.653333-13.653333 13.653333H137.898667z" fill="#27AC75" p-id="17518"></path><path d="M689.493333 1018.538667h-5.461333c-5.461333-2.730667-8.192-8.192-8.192-13.653334v-218.453333c0-2.730667 2.730667-8.192 2.730667-10.922667s5.461333-2.730667 10.922666-2.730666h218.453334c5.461333 0 10.922667 2.730667 13.653333 8.192s0 10.922667-2.730667 13.653333l-218.453333 218.453333c-2.730667 2.730667-5.461333 5.461333-10.922667 5.461334z m13.653334-218.453334v172.032l172.032-172.032h-172.032zM498.346667 453.290667c-131.072 0-234.837333-117.418667-240.298667-122.88-5.461333-5.461333-5.461333-13.653333 0-19.114667 5.461333-5.461333 109.226667-122.88 240.298667-122.88 131.072 0 234.837333 117.418667 240.298666 122.88 5.461333 5.461333 5.461333 13.653333 0 19.114667-5.461333 5.461333-109.226667 122.88-240.298666 122.88zM288.085333 319.488c27.306667 27.306667 111.957333 103.765333 210.261334 103.765333 98.304 0 182.954667-79.189333 210.261333-103.765333-27.306667-27.306667-111.957333-103.765333-210.261333-103.765333-98.304 0-182.954667 79.189333-210.261334 103.765333z" fill="#27AC75" p-id="17519"></path><path d="M498.346667 404.138667c-43.690667 0-79.189333-35.498667-79.189334-79.189334 0-43.690667 35.498667-79.189333 79.189334-79.189333 21.845333 0 40.96 8.192 54.613333 21.845333 16.384 13.653333 24.576 35.498667 24.576 57.344s-8.192 40.96-21.845333 57.344c-13.653333 13.653333-35.498667 21.845333-57.344 21.845334z m0-131.072c-27.306667 0-51.882667 24.576-51.882667 51.882666 0 30.037333 24.576 51.882667 51.882667 51.882667 13.653333 0 27.306667-5.461333 35.498666-16.384 10.922667-10.922667 16.384-21.845333 16.384-38.229333 0-13.653333-5.461333-27.306667-16.384-35.498667-8.192-8.192-19.114667-13.653333-35.498666-13.653333z m0-13.653334zM689.493333 581.632h-382.293333c-8.192 0-13.653333-5.461333-13.653333-13.653333s5.461333-13.653333 13.653333-13.653334h382.293333c8.192 0 13.653333 5.461333 13.653334 13.653334s-5.461333 13.653333-13.653334 13.653333zM689.493333 690.858667h-382.293333c-8.192 0-13.653333-5.461333-13.653333-13.653334s5.461333-13.653333 13.653333-13.653333h382.293333c8.192 0 13.653333 5.461333 13.653334 13.653333s-5.461333 13.653333-13.653334 13.653334z" fill="#27AC75" p-id="17520"></path></svg>