<?xml version="1.0" standalone="no"?><!DOCTYPE svg PUBLIC "-//W3C//DTD SVG 1.1//EN" "http://www.w3.org/Graphics/SVG/1.1/DTD/svg11.dtd"><svg t="1623739664386" class="icon" viewBox="0 0 1024 1024" version="1.1" xmlns="http://www.w3.org/2000/svg" p-id="39934" xmlns:xlink="http://www.w3.org/1999/xlink" width="128" height="128"><defs><style type="text/css"></style></defs><path d="M557.840233 613.370491l0-85.873675c-1.228186-3.386542-3.404604-5.842914-6.457007-7.405239-0.894047-0.298016-2.447341-0.632155-4.596666-0.894047L405.861258 519.197531l-11.053673 8.299286 0 85.900767 11.053673 11.089796 140.925302 0c3.377511-1.228186 6.25833-3.422665 8.741794-6.438945C556.115354 617.091172 556.910063 615.56497 557.840233 613.370491zM591.001252 635.550084c-2.149325 6.773084-6.457007 11.983843-12.904983 15.704524-2.149325 1.228186-5.228821 2.456372-9.202364 3.684558L389.271717 654.939166c-6.755022-1.228186-12.40829-4.777282-17.041079-10.593103-1.526202-1.86034-3.205926-4.813405-5.066267-8.795978L367.164371 508.080642c1.228186-5.246882 3.973543-10.620196 8.272193-16.165094 0.632155-0.894047 1.553294-1.995802 2.817603-3.223988l11.01755-2.754388 179.613158 0c7.974178 1.228186 14.097046 5.210759 18.431819 11.983843 1.192063 2.158356 2.420249 5.544898 3.675527 10.186718L590.992222 635.550084zM599.273446 363.994567l-5.526837 38.805256c-1.553294 14.476338-5.228821 26.026704-11.053673 34.624006-7.080131 10.791781-17.212664 16.761125-30.37954 17.989311l-16.58051 0c-13.835153 0-29.024923-1.86034-45.605433-5.544898-5.526837-1.228186-12.40829-3.088526-20.716606-5.544898-7.378146 0.036123-11.053673-4.876621-11.053673-14.738231 0-3.982573 0.93017-7.405239 2.78148-10.159626 5.824852-1.228186 11.785166-1.86034 17.935127-1.86034 5.228821 0 11.216227 0.46057 17.97125 1.39074 15.948355 2.158356 26.080889 3.223988 30.37954 3.223988l13.835153 0c9.825487-4.912744 16.715971-13.546168 20.716606-25.855119 2.745357-8.633424 4.136097-19.389082 4.136097-32.330188l0-49.858929c0-4.614728-1.85131-7.865808-5.526837-9.690026-1.228186-0.632155-3.079496-1.065632-5.526837-1.39074l-77.34862 0c-5.860975 27.679337-15.948355 54.798765-30.415663 81.286039-10.719534 20.012206-23.001393 38.633671-36.836546 55.864397-11.053673 13.844184-17.176541 20.779822-18.404727 20.779822-4.000635 2.456372-7.676162 3.684558-11.053673 3.684558-4.298651 0-7.847747-1.39074-10.593103-4.145127-2.745357-2.754388-4.136097-6.475068-4.136097-11.089796 0-3.088526 1.228186-6.637622 3.675527-10.620196 16.878525-16.93271 32.068295-37.242931 45.569309-60.939695 9.527472-16.625664 17.637111-34.190528 24.392133-52.640409 2.447341-7.405239 4.894682-14.774354 7.378146-22.170562l-88.402293 0c-6.755022-2.754388-10.295088-6.475068-10.593103-11.089796-0.298016-4.614728-0.46057-8.299286-0.46057-11.089796l11.053673-11.089796 218.273922 0c6.755022 2.158356 12.444413 6.475068 17.041079 12.941106 1.553294 2.158356 3.24205 5.246882 5.066267 9.229456L599.264415 363.994567zM353.365341 449.895335c-5.192698 7.405239-13.501014 14.476338-24.852703 21.240392-15.352324 9.256548-24.554687 15.07237-27.634183 17.555834l0 146.876585-2.745357 13.844184c-6.158991 7.405239-13.672599 11.089796-22.567916 11.089796-4.298651 0-8.272193-0.46057-11.983843-1.363648-5.526837-1.86034-9.662933-3.25108-12.40829-4.181251-6.755022-0.894047-11.812259-1.86034-15.18977-2.754388-6.457007-1.86034-9.662933-5.544898-9.662933-11.089796 0-6.475068 1.228186-10.791781 3.675527-12.941106 2.447341-2.158356 6.285422-3.25108 11.514243-3.25108 2.447341 0 5.066267 0.162554 7.811624 0.46057 2.745357 0.334139 5.526837 0.632155 8.272193 0.93017 3.675527 0 6.881453-0.69537 9.662933-2.095141 2.78148-1.39074 4.768251-4.081912 5.987406-8.064485L273.244272 502.571867c-7.351054 5.210759-13.040444 9.057871-17.013987 11.514243-8.010301 4.948867-14.467308 7.405239-19.36199 7.405239-6.457007 0-11.812259-3.522004-16.11994-10.620196 1.228186-11.387812 7.811624-20.445683 19.795467-27.218767 10.719534-5.544898 21.646777-11.25235 32.70045-17.095264L273.244272 372.320945 237.328865 372.320945c-4.000635-0.632155-6.917577-2.257695-8.741794-4.849528-1.824217-2.591833-2.78148-5.942252-2.78148-9.960949 0-9.527472 3.838081-15.704524 11.514243-18.486004l35.906376 0 0-72.029491c0-3.052403 1.39074-5.544898 4.136097-7.405239 2.745357-1.86034 5.987406-2.754388 9.662933-2.754388 3.973543 0 7.278808 0.866955 9.897733 2.55571 2.618926 1.688756 3.93742 4.217374 3.93742 7.603916l0 72.029491 35.906376 0c3.377511 1.228186 6.158991 3.684558 8.272193 7.405239 2.122233 3.720681 3.205926 7.567793 3.205926 11.550366 0 8.299286-3.838081 13.076568-11.514243 14.304754l-35.879284 0 0 80.3649 22.107346-13.844184c3.377511-5.246882 8.145762-7.829685 14.295723-7.829685 4.894682 0 9.03981 1.688756 12.40829 5.075298C353.067325 439.437693 354.295511 444.052421 353.365341 449.895335zM612.711244 795.494206c-73.889832 0-73.889832 0-161.3168 0-46.987142 0-46.987142 0-91.879143 0-60.551371 0-60.551371 0-106.34645 0-18.982697 0-18.982697 0-31.968957 0-9.608749 0-9.608749 0-11.676797 0-23.877379-0.027092-42.137614-15.930294-42.164706-33.937666l0-530.793051c0.027092-17.989311 18.287327-33.883482 42.200829-33.919605l439.266108 0c23.877379 0.027092 42.155675 15.939324 42.20986 33.991851l0 360.021025c0 11.938689 9.671964 21.610653 21.610653 21.610653 11.938689 0 21.610653-9.671964 21.610653-21.610653L734.256495 230.763489c-0.126431-43.329676-38.913626-77.086727-85.404074-77.140912L209.523097 153.622577c-46.535603 0.081277-85.322797 33.838328-85.386013 77.11382l0 530.865297c0.063215 43.293553 38.859441 77.068666 85.358921 77.12285 2.095141 0 2.095141 0 11.703889 0 12.98626 0 12.98626 0 31.968957 0 45.795079 0 45.795079 0 106.34645 0 44.88297 0 44.88297 0 91.879143 0 87.426969 0 87.426969 0 161.3168 0 11.938689 0 21.610653-9.671964 21.610653-21.610653C634.321898 805.16617 624.640903 795.494206 612.711244 795.494206z" fill="#0e932e" p-id="39935"></path><path d="M702.043708 35.590299c-1.751971 0-3.052403 0.045154-3.738742 0.072246L260.176735 35.662545c-9.554564 0-17.293941 7.730347-17.293941 17.28491l0 7.847747c0 9.545533 7.739377 17.28491 17.28491 17.28491l439.627339 0c0.57797-0.072246 0.785678-0.072246 2.239633-0.072246 7.603916-0.090308 35.752853 1.517171 59.296093 15.65937 23.263286 14.512461 44.630108 37.929271 45.22614 95.0941 0 628.343522 0.045154 399.27782 0.045154 399.27782l42.480783 54.022118c0 0 0 175.043584 0-453.308969 0.69537-69.067396-31.165217-111.602364-65.996931-131.569415C748.516095 36.935885 713.78372 35.698668 702.043708 35.590299z" fill="#0e932e" p-id="39936"></path><path d="M896.340912 920.90463l14.395061-32.104418c-0.270923 0.054185-0.270923 0.054185-1.562325 0.316077-1.27334 0.252862-2.745357 0.550878-4.40702 0.885016-4.75019 0.957263-10.042226 2.022894-15.758709 3.187865-16.327648 3.305265-32.709481 6.646653-48.097928 9.816456-4.533451 0.93017-8.642455 3.296234-11.730982 6.736961l-46.707188 52.098562 34.741406 3.503942-50.175007-85.684029c-4.118035-7.025946-11.839351-11.143981-19.967052-10.647288-0.596031 0.036123-1.083693 0.072246-2.068048 0.135462-0.018062 0-3.955481 0.243831-5.156575 0.243831-1.201094 0-2.329941-0.054185-5.120452-0.243831-0.018062 0-1.50814-0.099339-2.104171-0.135462-8.127701-0.496693-15.849017 3.621342-19.967052 10.647288l-50.175007 85.684029 34.741406-3.494911c-0.180616-0.207708-0.180616-0.207708-1.04757-1.174001-1.183032-1.318494-1.183032-1.318494-2.962095-3.305265-3.187865-3.558127-6.745992-7.522639-10.575042-11.803228-10.945304-12.209613-21.899638-24.428256-32.140541-35.843161-3.088526-3.440727-7.197531-5.79776-11.721951-6.72793-15.388447-3.169803-31.77028-6.511191-48.097928-9.816456-5.716483-1.15594-11.008519-2.230602-15.758709-3.187865-1.661663-0.334139-3.13368-0.632155-4.40702-0.885016C569.209983 888.845366 569.209983 888.845366 568.93906 888.791181l14.223476 32.402434 53.868595-88.763524c6.195114-10.20478 2.944034-23.489055-7.260746-29.68417-10.20478-6.195114-23.489055-2.944034-29.68417 7.260746l-53.868595 88.763524c-7.7755 12.805644-0.4696 29.449369 14.223476 32.402434 0.270923 0.054185 0.270923 0.054185 1.544263 0.307046 1.264309 0.252862 2.736326 0.550878 4.388958 0.885016 4.732128 0.957263 10.015134 2.022894 15.713555 3.178834 16.282494 3.296234 32.619173 6.628592 47.953435 9.789364l-11.721951-6.72793c10.240903 11.405874 21.186207 23.615486 32.12248 35.816068 3.82905 4.271558 7.378146 8.23607 10.566011 11.794197 1.779063 1.977741 1.779063 1.977741 2.962095 3.305265 0.866955 0.966293 0.866955 0.966293 1.04757 1.16497 9.771303 10.909181 27.345198 9.148179 34.741406-3.494911l50.175007-85.684029-18.648558-10.918211-1.318494 21.5655c0.478631 0.027092 0.903078 0.054185 1.797125 0.1174 0.018062 0 5.57199 0.34317 8.064485 0.34317s4.280589-0.090308 8.028362-0.34317c0.018062 0 1.354617-0.090308 1.833248-0.1174l-1.318494-21.5655-18.648558 10.918211 50.175007 85.684029c7.396208 12.634059 24.961072 14.413123 34.741406 3.503942l46.707188-52.098562-11.730982 6.736961c15.334262-3.160773 31.679972-6.49313 47.953435-9.789364 5.698421-1.15594 10.981427-2.221572 15.713555-3.178834 1.652633-0.334139 3.124649-0.632155 4.388958-0.885016 1.282371-0.261893 1.282371-0.261893 1.544263-0.307046 14.548585-2.916942 21.890608-19.298774 14.395061-32.104418l-54.572996-93.188606c-6.03256-10.295088-19.271682-13.753876-29.56677-7.730347-10.295088 6.03256-13.753876 19.271682-7.730347 29.56677L896.340912 920.90463z" fill="#0e932e" p-id="39937"></path><path d="M739.837517 861.500168c-68.931934 0-124.823424-55.927613-124.823424-124.931793s55.89149-124.931793 124.823424-124.931793c68.931934 0 124.823424 55.927613 124.823424 124.931793S808.778481 861.500168 739.837517 861.500168zM739.837517 904.712444c92.809313 0 168.044731-75.289602 168.044731-168.1531s-75.235418-168.1531-168.044731-168.1531-168.044731 75.289602-168.044731 168.1531S647.028204 904.712444 739.837517 904.712444z" fill="#0e932e" p-id="39938"></path><path d="M662.958497 768.239316l54.843919 39.852827c9.653902 7.016915 23.172978 4.876621 30.180863-4.777282 7.016915-9.653902 4.876621-23.172978-4.777282-30.180863l-54.843919-39.852827c-9.653902-7.016915-23.172978-4.876621-30.180863 4.777282C651.1643 747.712356 653.304595 761.222401 662.958497 768.239316z" fill="#0e932e" p-id="39939"></path><path d="M782.869177 690.366911l-64.47976 88.754493c-7.016915 9.653902-4.876621 23.172978 4.777282 30.180863 9.653902 7.016915 23.172978 4.876621 30.180863-4.777282l64.47976-88.754493c7.016915-9.653902 4.876621-23.172978-4.777282-30.180863C803.396137 678.572714 789.886092 680.713008 782.869177 690.366911z" fill="#0e932e" p-id="39940"></path></svg>