<?xml version="1.0" standalone="no"?><!DOCTYPE svg PUBLIC "-//W3C//DTD SVG 1.1//EN" "http://www.w3.org/Graphics/SVG/1.1/DTD/svg11.dtd"><svg t="1623739600994" class="icon" viewBox="0 0 1024 1024" version="1.1" xmlns="http://www.w3.org/2000/svg" p-id="38524" xmlns:xlink="http://www.w3.org/1999/xlink" width="128" height="128"><defs><style type="text/css"></style></defs><path d="M1023.1 805.9V217.2C1023.1 97.2 925.8 0 805.9 0H217.2C97.2 0 0 97.2 0 217.2v588.7c0 120 97.2 217.2 217.2 217.2h588.7c119.9-0.1 217.2-97.3 217.2-217.2z" fill="#0DA5F3" p-id="38525"></path><path d="M315.2 153.8h125.1c8.8 0 15.9 7.1 15.9 15.9v92.9H299.3v-92.9c0-8.8 7.1-15.9 15.9-15.9z m0 0M705.4 153.8s-37-43.4-77.5 9.2c0 0-87.4 139.5 7.4 271 0 0 6.5 68.7 22.2 108.8 0 0-28.4 118-22.2 313.4 0 0 39.9 78.4 92.3 7.4 0 0-21.7-209.3 1.8-309.7 0 0-35.4-47.6-35.1-106.9l9.2-11.1h38.8s59.4 6.8 72-121.7c12.5-128.5-54.3-176.6-108.9-160.4z m0 0" fill="#FFFFFF" p-id="38526"></path><path d="M662.9 201.7h55.4s20.4-52.3 53.5 0c0 0 41.9 102.1-1.8 186.2 0 0-22.6 53-51.7 1.8h-55.4l-5.5-14.8h68.3s20.6-13.4 0-27.7H650l-3.7-16.6h70.1s23.2-13.4 0-27.7h-68.3l-3.7-16.6h70.1s25.6-13.4 0-27.7H648l1.8-14.8h75.7s27-14.8 0-27.7h-68.3l5.7-14.4z m0 0" fill="#0DA5F3" p-id="38527"></path><path d="M279 308.7h195.7s24.6 22.6 27.7 59l31.4 479.4s3.2 35.6-35.1 35c-38.2-0.6-251 0-251 0s-30.3 5.1-27.7-40.6c2.6-45.7 31.4-475.7 31.4-475.7s6.5-38.8 27.6-57.1z m0 0" fill="#FFFFFF" p-id="38528"></path><path d="M290.1 358.5h24v483.1h-48l24-483.1z m0 0" fill="#0DA5F3" p-id="38529"></path></svg>