<?xml version="1.0" standalone="no"?><!DOCTYPE svg PUBLIC "-//W3C//DTD SVG 1.1//EN" "http://www.w3.org/Graphics/SVG/1.1/DTD/svg11.dtd"><svg t="1623738847895" class="icon" viewBox="0 0 1024 1024" version="1.1" xmlns="http://www.w3.org/2000/svg" p-id="16660" xmlns:xlink="http://www.w3.org/1999/xlink" width="128" height="128"><defs><style type="text/css"></style></defs><path d="M425.3 353.6H233.7c-2.1 0-3.7 2.6-3.7 5.8v50.4c0 3.2 1.7 5.8 3.7 5.8h191.6c2.1 0 3.7-2.6 3.7-5.8v-50.4c0-3.1-1.6-5.8-3.7-5.8zM425.3 477.5H233.7c-2.1 0-3.7 2.6-3.7 5.8v50.4c0 3.2 1.7 5.8 3.7 5.8h191.6c2.1 0 3.7-2.6 3.7-5.8v-50.4c0-3.2-1.6-5.8-3.7-5.8z" fill="#1296db" p-id="16661"></path><path d="M919.6 172.3h-375l1-104.1c0-1.4-2.6-2.5-5.8-2.6l-50.4-0.5c-3.2 0-5.8 1.1-5.8 2.5l-1.1 104.8H108.9c-6.4 0-11.6 5.2-11.6 11.6v535.2c0 6.4 5.2 11.6 11.6 11.6h243l-87.7 203.5c-1.1 2.5 0.5 5.3 3.5 6.1l47.5 14c3 0.9 6.4-0.4 7.4-2.9l95.2-220.7h178.5l95.2 220.7c1.1 2.5 4.4 3.8 7.4 2.9l47.5-14c3-0.9 4.6-3.7 3.5-6.1l-87.7-203.5h257.5c6.4 0.1 11.6-5.1 11.6-11.5V184c0-6.4-5.3-11.7-11.7-11.7zM159.2 663V240.2c0-3.2 2.6-5.8 5.8-5.8h698.3c3.2 0 5.8 2.6 5.8 5.8V663c0 3.2-2.6 5.8-5.8 5.8H165.1c-3.2 0-5.9-2.6-5.9-5.8z" fill="#1296db" p-id="16662"></path><path d="M649.2 359c-48.2 0-87.4 39.2-87.5 87.4 0 30.1 15.6 58.1 40.9 74.1v9.6c0.3 12.4 5.4 24 14.4 32.6 8.7 8.3 20.1 12.9 32.1 12.9h1.1c25.7-0.6 46.1-21.9 45.5-47.5v-7.7c25.3-15.9 40.8-44 40.8-74 0-23.4-9.1-45.3-25.6-61.8-16.4-16.5-38.4-25.6-61.7-25.6z m14.6 168.9c-0.2 7.7-6.5 13.9-14.1 14.1-3.9 0.2-7.6-1.3-10.5-4-2.8-2.7-4.5-6.3-4.6-10v-27.2l-9.1-4.3c-11.6-5.5-21-14.8-26.4-26.4-6.4-13.4-7.1-28.5-2.1-42.4 5-14 15.1-25.1 28.5-31.5 27.7-13.1 60.8-1.3 73.9 26.4 13.1 27.6 1.3 60.8-26.4 73.9l-9.1 4.3-0.1 27.1zM649.2 355.6c8.8 0 16-7.2 16-16v-26c0-8.8-7.2-16-16-16s-16 7.2-16 16v26c0 8.9 7.2 16 16 16zM761.6 344.6c-6.1-6.3-16.3-6.5-22.6-0.4L720.2 363c-6.1 6.3-5.9 16.5 0.4 22.6 3 2.9 6.9 4.5 11.1 4.5h0.3c4.3-0.1 8.2-1.8 11.1-4.8l18.4-18.4c6.1-6.4 6.1-16.1 0.1-22.3zM792.1 440.6h-26c-8.8 0-16 7.2-16 16s7.2 16 16 16h26c8.8 0 16-7.2 16-16s-7.2-16-16-16zM679.8 591.1h-59.9c-8.8 0-16 7.2-16 16s7.2 16 16 16h59.9c8.8 0 16-7.2 16-16s-7.2-16-16-16zM532.2 440.6h-26c-8.8 0-16 7.2-16 16s7.2 16 16 16h26c8.8 0 16-7.2 16-16s-7.2-16-16-16z" fill="#1296db" p-id="16663"></path><path d="M577.5 385.3c6.3-6.1 6.5-16.2 0.3-22.7l-18.4-18.4c-6.2-6-16-6-22.2 0-3.1 3-4.8 6.9-4.9 11.2-0.1 4.3 1.5 8.3 4.5 11.4l18.5 18.5c3.1 3 7.1 4.5 11.1 4.5s8-1.5 11.1-4.5z" fill="#1296db" p-id="16664"></path></svg>