<?xml version="1.0" standalone="no"?><!DOCTYPE svg PUBLIC "-//W3C//DTD SVG 1.1//EN" "http://www.w3.org/Graphics/SVG/1.1/DTD/svg11.dtd"><svg t="1623738689409" class="icon" viewBox="0 0 1024 1024" version="1.1" xmlns="http://www.w3.org/2000/svg" p-id="15732" xmlns:xlink="http://www.w3.org/1999/xlink" width="128" height="128"><defs><style type="text/css"></style></defs><path d="M226.88256 0.69632h566.23616c151.02464 0 226.5344 75.50976 226.5344 226.5344v566.23616c0 151.01952-75.50976 226.5344-226.5344 226.5344H226.88256c-151.02464 0-226.5344-75.51488-226.5344-226.5344V227.2256C0.34816 76.20608 75.85792 0.69632 226.88256 0.69632z" fill="#1DBC9C" p-id="15733"></path><path d="M439.8336 317.02528h167.70048a14.88384 14.88384 0 0 0 13.98272-14.98624 16.88064 16.88064 0 0 0-13.9776-17.0752H439.82848a16.88064 16.88064 0 0 0-13.98272 17.0752 14.88384 14.88384 0 0 0 13.9776 14.98624zM686.6432 432.384a16.88576 16.88576 0 0 0-13.98272-16.88064H375.20896a16.88064 16.88064 0 0 0-13.98272 17.08032 13.98272 13.98272 0 0 0 13.9776 13.98272h297.45664a13.98272 13.98272 0 0 0 13.98272-14.1824z m-277.97504-50.33984h231.42912a18.07872 18.07872 0 0 0 13.98272-18.07872 13.98272 13.98272 0 0 0-13.9776-13.98784H408.66304a13.98272 13.98272 0 0 0-13.98272 13.98784 18.07872 18.07872 0 0 0 13.98272 18.0736z m216.3456 290.95936H422.85056a18.67776 18.67776 0 0 0-18.67776 18.67776 14.98112 14.98112 0 0 0 18.67776 13.48096h202.1632a14.98112 14.98112 0 0 0 18.67776-13.58336 18.67776 18.67776 0 0 0-18.67776-18.67776v0.1024z" fill="#FFFFFF" p-id="15734"></path><path d="M841.26208 516.7872L753.4592 236.21632a73.51296 73.51296 0 0 0-68.52096-48.44032H362.92096a73.51296 73.51296 0 0 0-68.61824 48.44032l-87.79776 280.576a59.9296 59.9296 0 0 0-5.888 25.66656v231.22944c0.0512 33.46432 27.1616 60.5696 60.6208 60.63104h525.2864c33.46432-0.05632 60.57472-27.16672 60.63104-60.63104V542.464a59.9296 59.9296 0 0 0-5.89312-25.67168z m-484.33152-249.7024a27.56608 27.56608 0 0 1 24.06912-15.88224h285.66528a27.16672 27.16672 0 0 1 24.17152 15.88224l61.32736 211.2512h-131.24608a42.35264 42.35264 0 0 0-32.3584 18.87744 68.21888 68.21888 0 0 1-129.84832 0 42.35264 42.35264 0 0 0-32.06144-18.87744H297.6l59.33056-211.2512z m411.4176 502.41024H278.42048a13.98272 13.98272 0 0 1-13.98272-13.98272v-199.76704a13.98272 13.98272 0 0 1 13.98272-13.98272h143.3344a112.06656 112.06656 0 0 0 204.35968 0h142.2336a13.98272 13.98272 0 0 1 13.98272 13.9776v199.3728a13.98272 13.98272 0 0 1-13.98272 14.38208z" fill="#FFFFFF" p-id="15735"></path></svg>